<svg width="168" height="50" viewBox="0 0 168 50" fill="none" xmlns="http://www.w3.org/2000/svg">
<path d="M56.7754 25.2727C56.6153 25.2086 56.4232 25.1286 56.199 25.0325C56.0069 24.9685 55.7668 24.9045 55.4786 24.8404C55.2225 24.7764 54.9183 24.7444 54.5661 24.7444C54.0858 24.7444 53.6055 24.8404 53.1253 25.0325C52.677 25.1926 52.2608 25.4328 51.8765 25.7529C51.5243 26.0411 51.2362 26.4093 51.012 26.8576C50.7879 27.3058 50.6758 27.8181 50.6758 28.3945V38H46.7376V21.3824H49.3311L49.8113 23.7358H50.0035C50.3557 23.1915 50.916 22.6632 51.6844 22.1509C52.4529 21.6066 53.5095 21.3344 54.8543 21.3344C55.3986 21.3344 55.8788 21.3824 56.2951 21.4785C56.7113 21.5745 57.0635 21.6706 57.3517 21.7666C57.6719 21.8947 57.944 22.0388 58.1682 22.1989L56.7754 25.2727ZM77.5319 29.7873C77.5319 31.1 77.2918 32.3007 76.8115 33.3893C76.3313 34.446 75.6749 35.3425 74.8424 36.0789C74.0099 36.8153 73.0334 37.3916 71.9127 37.8079C70.7921 38.1921 69.6074 38.3842 68.3587 38.3842C67.1099 38.3842 65.9253 38.1921 64.8046 37.8079C63.684 37.3916 62.7074 36.8153 61.8749 36.0789C61.0745 35.3425 60.4341 34.446 59.9538 33.3893C59.4735 32.3007 59.2334 31.1 59.2334 29.7873C59.2334 28.4425 59.4735 27.2418 59.9538 26.1852C60.4341 25.0966 61.0745 24.168 61.8749 23.3996C62.7074 22.6311 63.684 22.0388 64.8046 21.6226C65.9253 21.2063 67.1099 20.9982 68.3587 20.9982C69.6074 20.9982 70.7921 21.2063 71.9127 21.6226C73.0334 22.0388 74.0099 22.6311 74.8424 23.3996C75.6749 24.168 76.3313 25.0966 76.8115 26.1852C77.2918 27.2418 77.5319 28.4425 77.5319 29.7873ZM68.3587 35.2144C69.8315 35.2144 71.0802 34.7341 72.1048 33.7736C73.1614 32.813 73.6897 31.4682 73.6897 29.7392C73.6897 28.0102 73.1614 26.6495 72.1048 25.6569C71.0802 24.6643 69.8315 24.168 68.3587 24.168C66.8858 24.168 65.6371 24.6643 64.6125 25.6569C63.5879 26.6495 63.0756 28.0102 63.0756 29.7392C63.0756 31.4682 63.5879 32.813 64.6125 33.7736C65.6371 34.7341 66.8858 35.2144 68.3587 35.2144ZM98.2458 38H95.6523L94.9799 35.6947H94.7878C94.6917 35.8868 94.4996 36.1429 94.2114 36.4631C93.9553 36.7513 93.5871 37.0394 93.1068 37.3276C92.6265 37.6158 92.0342 37.8559 91.3298 38.048C90.6254 38.2722 89.7929 38.3842 88.8323 38.3842C86.495 38.3842 84.6859 37.7118 83.4052 36.3671C82.1565 35.0223 81.5321 33.2132 81.5321 30.9399V21.3824H85.4704V30.4116C85.4704 31.7564 85.8066 32.877 86.479 33.7736C87.1834 34.6701 88.256 35.1183 89.6968 35.1183C90.4333 35.1183 91.0896 35.0063 91.666 34.7821C92.2423 34.526 92.7226 34.2058 93.1068 33.8216C93.491 33.4054 93.7792 32.9571 93.9713 32.4768C94.1954 31.9965 94.3075 31.5163 94.3075 31.036V21.3824H98.2458V38ZM104.925 21.3824V16.3875H108.816V21.3824H115.011V24.5523H108.816V31.084C108.816 32.4928 109.088 33.5174 109.632 34.1578C110.208 34.7661 111.057 35.0703 112.178 35.0703C112.722 35.0703 113.25 34.9582 113.762 34.7341C113.987 34.6381 114.211 34.526 114.435 34.3979L115.732 37.0875C115.443 37.3436 115.091 37.5678 114.675 37.7599C114.323 37.92 113.875 38.064 113.33 38.1921C112.818 38.3202 112.242 38.3842 111.601 38.3842C109.456 38.3842 107.807 37.7759 106.654 36.5592C105.502 35.3425 104.925 33.5654 104.925 31.2281V24.5523H101.707V21.3824H104.925ZM121.078 15.0428C120.405 15.0428 119.829 14.8186 119.349 14.3704C118.9 13.8901 118.676 13.3138 118.676 12.6414C118.676 11.969 118.9 11.3927 119.349 10.9124C119.829 10.4321 120.405 10.192 121.078 10.192C121.75 10.192 122.326 10.4321 122.807 10.9124C123.287 11.3927 123.527 11.969 123.527 12.6414C123.527 13.3138 123.287 13.8901 122.807 14.3704C122.326 14.8186 121.75 15.0428 121.078 15.0428ZM119.109 21.3824H123.047V38H119.109V21.3824ZM132.52 38H128.582V21.3824H131.175L131.655 23.7358H131.847C132.424 22.9033 133.192 22.2469 134.153 21.7666C135.145 21.2544 136.41 20.9982 137.947 20.9982C140.284 20.9982 142.093 21.6706 143.374 23.0154C144.687 24.3601 145.343 26.1692 145.343 28.4425V38H141.453V28.9708C141.453 27.626 141.085 26.5054 140.348 25.6089C139.612 24.7123 138.523 24.2641 137.083 24.2641C136.282 24.2641 135.594 24.4082 135.017 24.6963C134.441 24.9525 133.961 25.2887 133.576 25.7049C133.224 26.0891 132.952 26.5374 132.76 27.0497C132.6 27.53 132.52 27.9942 132.52 28.4425V38ZM165.132 36.5111C164.684 36.8633 164.156 37.1835 163.547 37.4717C163.003 37.7278 162.331 37.952 161.53 38.1441C160.762 38.3362 159.865 38.4322 158.841 38.4322C157.4 38.4322 156.087 38.2241 154.902 37.8079C153.75 37.3596 152.757 36.7513 151.925 35.9828C151.124 35.2144 150.5 34.3019 150.051 33.2453C149.603 32.1566 149.379 30.988 149.379 29.7392C149.379 28.4905 149.587 27.3379 150.003 26.2812C150.452 25.1926 151.06 24.2641 151.828 23.4956C152.597 22.6952 153.509 22.0868 154.566 21.6706C155.655 21.2223 156.855 20.9982 158.168 20.9982C159.449 20.9982 160.602 21.2063 161.626 21.6226C162.651 22.0388 163.515 22.6311 164.22 23.3996C164.956 24.136 165.5 25.0165 165.853 26.0411C166.237 27.0657 166.429 28.1703 166.429 29.355C166.429 29.4511 166.413 29.5631 166.381 29.6912C166.381 29.8193 166.381 29.9474 166.381 30.0754V30.5077H153.221C153.381 32.1406 153.99 33.3573 155.046 34.1578C156.135 34.9262 157.432 35.3105 158.937 35.3105C159.705 35.3105 160.393 35.2464 161.002 35.1183C161.61 34.9582 162.122 34.7982 162.539 34.6381C163.019 34.446 163.435 34.2058 163.787 33.9176L165.132 36.5111ZM158.12 24.072C156.903 24.072 155.863 24.4082 154.998 25.0806C154.166 25.7529 153.606 26.7135 153.317 27.9622H162.587C162.427 26.8416 161.946 25.913 161.146 25.1766C160.377 24.4402 159.369 24.072 158.12 24.072Z" fill="#333333"/>
<path d="M56.7754 25.2727L56.6825 25.5048L56.9044 25.5936L57.0031 25.3758L56.7754 25.2727ZM56.199 25.0325L56.2975 24.8027L56.288 24.7986L56.2781 24.7954L56.199 25.0325ZM55.4786 24.8404L55.418 25.083L55.4244 25.0845L55.4786 24.8404ZM53.1253 25.0325L53.2094 25.2681L53.2181 25.2646L53.1253 25.0325ZM51.8765 25.7529L52.0349 25.9464L52.0366 25.945L51.8765 25.7529ZM50.6758 38V38.25H50.9258V38H50.6758ZM46.7376 38H46.4876V38.25H46.7376V38ZM46.7376 21.3824V21.1324H46.4876V21.3824H46.7376ZM49.3311 21.3824L49.576 21.3324L49.5352 21.1324H49.3311V21.3824ZM49.8113 23.7358L49.5664 23.7858L49.6072 23.9858H49.8113V23.7358ZM50.0035 23.7358V23.9858H50.1395L50.2134 23.8716L50.0035 23.7358ZM51.6844 22.1509L51.8232 22.359L51.8289 22.3549L51.6844 22.1509ZM56.2951 21.4785L56.2389 21.7221L56.2951 21.4785ZM57.3517 21.7666L57.4445 21.5345L57.4377 21.5318L57.4308 21.5295L57.3517 21.7666ZM58.1682 22.1989L58.3959 22.3021L58.4807 22.1149L58.3135 21.9955L58.1682 22.1989ZM56.8682 25.0405C56.7106 24.9775 56.5205 24.8983 56.2975 24.8027L56.1005 25.2623C56.3259 25.3589 56.5199 25.4398 56.6825 25.5048L56.8682 25.0405ZM56.2781 24.7954C56.0751 24.7277 55.826 24.6615 55.5328 24.5964L55.4244 25.0845C55.7076 25.1474 55.9388 25.2093 56.12 25.2697L56.2781 24.7954ZM55.5392 24.5979C55.2579 24.5276 54.9324 24.4944 54.5661 24.4944V24.9944C54.9042 24.9944 55.187 25.0252 55.418 25.083L55.5392 24.5979ZM54.5661 24.4944C54.0516 24.4944 53.5399 24.5974 53.0324 24.8004L53.2181 25.2646C53.6711 25.0834 54.12 24.9944 54.5661 24.9944V24.4944ZM53.0412 24.7971C52.5639 24.9676 52.1221 25.2229 51.7165 25.5609L52.0366 25.945C52.3994 25.6427 52.7901 25.4177 53.2093 25.268L53.0412 24.7971ZM51.7182 25.5595C51.3361 25.8721 51.0267 26.2692 50.7884 26.7458L51.2356 26.9694C51.4456 26.5494 51.7126 26.2101 52.0348 25.9464L51.7182 25.5595ZM50.7884 26.7458C50.5445 27.2336 50.4258 27.7852 50.4258 28.3945H50.9258C50.9258 27.8511 51.0313 27.3781 51.2356 26.9694L50.7884 26.7458ZM50.4258 28.3945V38H50.9258V28.3945H50.4258ZM50.6758 37.75H46.7376V38.25H50.6758V37.75ZM46.9876 38V21.3824H46.4876V38H46.9876ZM46.7376 21.6324H49.3311V21.1324H46.7376V21.6324ZM49.0861 21.4324L49.5664 23.7858L50.0563 23.6858L49.576 21.3324L49.0861 21.4324ZM49.8113 23.9858H50.0035V23.4858H49.8113V23.9858ZM50.2134 23.8716C50.5409 23.3654 51.0719 22.8597 51.8231 22.3589L51.5458 21.9429C50.7601 22.4667 50.1704 23.0175 49.7936 23.6L50.2134 23.8716ZM51.8289 22.3549C52.5405 21.8508 53.5399 21.5844 54.8543 21.5844V21.0844C53.479 21.0844 52.3652 21.3623 51.5399 21.9469L51.8289 22.3549ZM54.8543 21.5844C55.3845 21.5844 55.8453 21.6313 56.2389 21.7221L56.3513 21.2349C55.9124 21.1336 55.4126 21.0844 54.8543 21.0844V21.5844ZM56.2389 21.7221C56.6502 21.817 56.9943 21.911 57.2726 22.0038L57.4308 21.5295C57.1328 21.4301 56.7724 21.3321 56.3513 21.2349L56.2389 21.7221ZM57.2588 21.9988C57.5649 22.1212 57.8185 22.2563 58.0229 22.4023L58.3135 21.9955C58.0696 21.8213 57.7789 21.6683 57.4445 21.5345L57.2588 21.9988ZM57.9405 22.0957L56.5476 25.1695L57.0031 25.3758L58.3959 22.3021L57.9405 22.0957ZM76.8115 33.3893L77.0391 33.4928L77.0403 33.4903L76.8115 33.3893ZM74.8424 36.0789L74.6768 35.8916L74.8424 36.0789ZM71.9127 37.8079L71.9938 38.0445L71.9998 38.0422L71.9127 37.8079ZM64.8046 37.8079L64.7175 38.0423L64.7235 38.0444L64.8046 37.8079ZM61.8749 36.0789L61.7056 36.2629L61.7093 36.2661L61.8749 36.0789ZM59.9538 33.3893L59.7251 33.4903L59.7262 33.4928L59.9538 33.3893ZM59.9538 26.1852L60.1814 26.2887L60.1825 26.2861L59.9538 26.1852ZM61.8749 23.3996L61.7053 23.2159L61.7018 23.2192L61.8749 23.3996ZM64.8046 21.6226L64.7176 21.3882L64.8046 21.6226ZM71.9127 21.6226L71.9998 21.3882L71.9127 21.6226ZM74.8424 23.3996L75.012 23.2159L74.8424 23.3996ZM76.8115 26.1852L76.5828 26.2861L76.5839 26.2886L76.8115 26.1852ZM72.1048 33.7736L71.9366 33.5886L71.9338 33.5912L72.1048 33.7736ZM72.1048 25.6569L71.9309 25.8365L71.9337 25.8391L72.1048 25.6569ZM64.6125 25.6569L64.7865 25.8364L64.6125 25.6569ZM64.6125 33.7736L64.7835 33.5912L64.6125 33.7736ZM77.2819 29.7873C77.2819 31.0689 77.0477 32.2347 76.5828 33.2884L77.0403 33.4903C77.536 32.3667 77.7819 31.1312 77.7819 29.7873H77.2819ZM76.5839 33.2859C76.1175 34.312 75.4818 35.1795 74.6768 35.8916L75.008 36.2661C75.868 35.5054 76.545 34.5799 77.0391 33.4928L76.5839 33.2859ZM74.6768 35.8916C73.869 36.6062 72.9196 37.1672 71.8257 37.5735L71.9998 38.0422C73.1471 37.6161 74.1508 37.0245 75.008 36.2661L74.6768 35.8916ZM71.8316 37.5714C70.7385 37.9462 69.5813 38.1342 68.3587 38.1342V38.6342C69.6335 38.6342 70.8457 38.438 71.9938 38.0444L71.8316 37.5714ZM68.3587 38.1342C67.136 38.1342 65.9789 37.9462 64.8857 37.5714L64.7235 38.0444C65.8717 38.438 67.0839 38.6342 68.3587 38.6342V38.1342ZM64.8917 37.5735C63.7977 37.1672 62.8483 36.6062 62.0406 35.8916L61.7093 36.2661C62.5665 37.0245 63.5702 37.6161 64.7176 38.0422L64.8917 37.5735ZM62.0442 35.8949C61.27 35.1826 60.6488 34.3141 60.1814 33.2859L59.7262 33.4928C60.2194 34.5778 60.8789 35.5023 61.7057 36.2629L62.0442 35.8949ZM60.1825 33.2884C59.7177 32.2347 59.4834 31.0689 59.4834 29.7873H58.9834C58.9834 31.1312 59.2294 32.3667 59.7251 33.4903L60.1825 33.2884ZM59.4834 29.7873C59.4834 28.4726 59.7181 27.308 60.1814 26.2886L59.7262 26.0817C59.229 27.1756 58.9834 28.4124 58.9834 29.7873H59.4834ZM60.1825 26.2861C60.6506 25.2251 61.2728 24.3242 62.0481 23.5799L61.7018 23.2192C60.8761 24.0119 60.2176 24.968 59.7251 26.0843L60.1825 26.2861ZM62.0445 23.5833C62.8517 22.8382 63.7998 22.2624 64.8917 21.8569L64.7176 21.3882C63.5681 21.8152 62.5631 22.4241 61.7054 23.2159L62.0445 23.5833ZM64.8917 21.8569C65.9832 21.4515 67.1383 21.2482 68.3587 21.2482V20.7482C67.0816 20.7482 65.8673 20.9612 64.7176 21.3882L64.8917 21.8569ZM68.3587 21.2482C69.579 21.2482 70.7341 21.4515 71.8257 21.8569L71.9998 21.3882C70.85 20.9612 69.6358 20.7482 68.3587 20.7482V21.2482ZM71.8257 21.8569C72.9175 22.2624 73.8656 22.8382 74.6728 23.5833L75.012 23.2159C74.1542 22.4241 73.1492 21.8152 71.9998 21.3882L71.8257 21.8569ZM74.6728 23.5833C75.4789 24.3273 76.1157 25.2272 76.5828 26.2861L77.0403 26.0843C76.5469 24.9659 75.8709 24.0087 75.012 23.2159L74.6728 23.5833ZM76.5839 26.2886C77.0473 27.308 77.2819 28.4726 77.2819 29.7873H77.7819C77.7819 28.4124 77.5363 27.1756 77.0391 26.0817L76.5839 26.2886ZM68.3587 35.4644C69.8916 35.4644 71.2024 34.9622 72.2758 33.9559L71.9338 33.5912C70.958 34.506 69.7714 34.9644 68.3587 34.9644V35.4644ZM72.273 33.9585C73.3925 32.9408 73.9397 31.5226 73.9397 29.7392H73.4397C73.4397 31.4139 72.9303 32.6852 71.9367 33.5886L72.273 33.9585ZM73.9397 29.7392C73.9397 27.9556 73.3925 26.5235 72.276 25.4747L71.9337 25.8391C72.9303 26.7754 73.4397 28.0649 73.4397 29.7392H73.9397ZM72.2788 25.4773C71.2059 24.438 69.8941 23.918 68.3587 23.918V24.418C69.7689 24.418 70.9546 24.8907 71.9309 25.8364L72.2788 25.4773ZM68.3587 23.918C66.8232 23.918 65.5114 24.438 64.4386 25.4773L64.7865 25.8364C65.7627 24.8907 66.9484 24.418 68.3587 24.418V23.918ZM64.4386 25.4773C63.3553 26.5267 62.8256 27.958 62.8256 29.7392H63.3256C63.3256 28.0625 63.8205 26.7722 64.7865 25.8364L64.4386 25.4773ZM62.8256 29.7392C62.8256 31.5202 63.3552 32.9376 64.4415 33.9559L64.7835 33.5912C63.8206 32.6884 63.3256 31.4163 63.3256 29.7392H62.8256ZM64.4415 33.9559C65.5149 34.9622 66.8257 35.4644 68.3587 35.4644V34.9644C66.9459 34.9644 65.7593 34.506 64.7835 33.5912L64.4415 33.9559ZM98.2458 38V38.25H98.4958V38H98.2458ZM95.6523 38L95.4123 38.07L95.4648 38.25H95.6523V38ZM94.9799 35.6947L95.2199 35.6247L95.1674 35.4447H94.9799V35.6947ZM94.7878 35.6947V35.4447H94.6333L94.5642 35.5829L94.7878 35.6947ZM94.2114 36.4631L94.0256 36.2959L94.0246 36.297L94.2114 36.4631ZM93.1068 37.3276L93.2354 37.542L93.1068 37.3276ZM91.3298 38.048L91.2639 37.8066L91.254 37.8098L91.3298 38.048ZM83.4052 36.3671L83.222 36.5372L83.2242 36.5395L83.4052 36.3671ZM81.5321 21.3824V21.1324H81.2821V21.3824H81.5321ZM85.4704 21.3824H85.7204V21.1324H85.4704V21.3824ZM86.479 33.7736L86.2789 33.9236L86.2824 33.928L86.479 33.7736ZM91.666 34.7821L91.7567 35.0154L91.7675 35.0106L91.666 34.7821ZM93.1068 33.8216L93.2837 33.9985L93.2905 33.9912L93.1068 33.8216ZM93.9713 32.4768L93.7444 32.3709L93.7392 32.384L93.9713 32.4768ZM94.3075 21.3824V21.1324H94.0575V21.3824H94.3075ZM98.2458 21.3824H98.4958V21.1324H98.2458V21.3824ZM98.2458 37.75H95.6523V38.25H98.2458V37.75ZM95.8923 37.93L95.2199 35.6247L94.7399 35.7647L95.4123 38.07L95.8923 37.93ZM94.9799 35.4447H94.7878V35.9447H94.9799V35.4447ZM94.5642 35.5829C94.4838 35.7435 94.3106 35.9792 94.0256 36.2959L94.3973 36.6304C94.6886 36.3067 94.8996 36.03 95.0114 35.8065L94.5642 35.5829ZM94.0246 36.297C93.791 36.5598 93.4456 36.8328 92.9782 37.1132L93.2354 37.542C93.7285 37.2461 94.1195 36.9428 94.3983 36.6292L94.0246 36.297ZM92.9782 37.1132C92.5224 37.3867 91.9526 37.619 91.264 37.8068L91.3955 38.2892C92.1157 38.0928 92.7306 37.8449 93.2354 37.542L92.9782 37.1132ZM91.254 37.8098C90.5802 38.0242 89.7744 38.1342 88.8323 38.1342V38.6342C89.8113 38.6342 90.6706 38.5201 91.4056 38.2863L91.254 37.8098ZM88.8323 38.1342C86.5446 38.1342 84.8082 37.4777 83.5862 36.1946L83.2242 36.5395C84.5637 37.9459 86.4454 38.6342 88.8323 38.6342V38.1342ZM83.5884 36.1969C82.3923 34.9088 81.7821 33.1659 81.7821 30.9399H81.2821C81.2821 33.2606 81.9207 35.1358 83.222 36.5372L83.5884 36.1969ZM81.7821 30.9399V21.3824H81.2821V30.9399H81.7821ZM81.5321 21.6324H85.4704V21.1324H81.5321V21.6324ZM85.2204 21.3824V30.4116H85.7204V21.3824H85.2204ZM85.2204 30.4116C85.2204 31.7994 85.568 32.9756 86.279 33.9236L86.679 33.6236C86.0451 32.7785 85.7204 31.7134 85.7204 30.4116H85.2204ZM86.2824 33.928C87.0464 34.9004 88.2015 35.3683 89.6968 35.3683V34.8683C88.3105 34.8683 87.3204 34.4398 86.6756 33.6191L86.2824 33.928ZM89.6968 35.3683C90.4585 35.3683 91.1464 35.2524 91.7566 35.0151L91.5754 34.5491C91.0329 34.7601 90.408 34.8683 89.6968 34.8683V35.3683ZM91.7675 35.0106C92.3674 34.744 92.8745 34.4075 93.2836 33.9984L92.93 33.6448C92.5707 34.0042 92.1172 34.308 91.5644 34.5537L91.7675 35.0106ZM93.2905 33.9912C93.6934 33.5546 93.9989 33.0808 94.2034 32.5697L93.7392 32.384C93.5594 32.8334 93.2886 33.2561 92.9231 33.652L93.2905 33.9912ZM94.1978 32.5825C94.4358 32.0726 94.5575 31.5564 94.5575 31.036H94.0575C94.0575 31.4761 93.955 31.9205 93.7447 32.3711L94.1978 32.5825ZM94.5575 31.036V21.3824H94.0575V31.036H94.5575ZM94.3075 21.6324H98.2458V21.1324H94.3075V21.6324ZM97.9958 21.3824V38H98.4958V21.3824H97.9958ZM104.925 21.3824V21.6324H105.175V21.3824H104.925ZM104.925 16.3875V16.1375H104.675V16.3875H104.925ZM108.816 16.3875H109.066V16.1375H108.816V16.3875ZM108.816 21.3824H108.566V21.6324H108.816V21.3824ZM115.011 21.3824H115.261V21.1324H115.011V21.3824ZM115.011 24.5523V24.8023H115.261V24.5523H115.011ZM108.816 24.5523V24.3023H108.566V24.5523H108.816ZM109.632 34.1578L109.441 34.3199L109.451 34.3297L109.632 34.1578ZM113.762 34.7341L113.664 34.5043L113.662 34.5051L113.762 34.7341ZM114.435 34.3979L114.66 34.2893L114.544 34.0478L114.311 34.1809L114.435 34.3979ZM115.732 37.0875L115.898 37.2743L116.039 37.1489L115.957 36.9789L115.732 37.0875ZM114.675 37.7599L114.778 37.9875L114.78 37.9869L114.675 37.7599ZM113.33 38.1921L113.273 37.9487L113.27 37.9496L113.33 38.1921ZM106.654 36.5592L106.473 36.7311L106.654 36.5592ZM104.925 24.5523H105.175V24.3023H104.925V24.5523ZM101.708 24.5523H101.458V24.8023H101.708V24.5523ZM101.708 21.3824V21.1324H101.458V21.3824H101.708ZM105.175 21.3824V16.3875H104.675V21.3824H105.175ZM104.925 16.6375H108.816V16.1375H104.925V16.6375ZM108.566 16.3875V21.3824H109.066V16.3875H108.566ZM108.816 21.6324H115.011V21.1324H108.816V21.6324ZM114.761 21.3824V24.5523H115.261V21.3824H114.761ZM115.011 24.3023H108.816V24.8023H115.011V24.3023ZM108.566 24.5523V31.084H109.066V24.5523H108.566ZM108.566 31.084C108.566 32.5152 108.84 33.6123 109.442 34.3197L109.823 33.9959C109.335 33.4226 109.066 32.4705 109.066 31.084H108.566ZM109.451 34.3297C110.088 35.0031 111.012 35.3203 112.178 35.3203V34.8203C111.101 34.8203 110.328 34.5292 109.814 33.9859L109.451 34.3297ZM112.178 35.3203C112.757 35.3203 113.32 35.2007 113.863 34.9632L113.662 34.5051C113.181 34.7158 112.686 34.8203 112.178 34.8203V35.3203ZM113.861 34.9639C114.094 34.8639 114.327 34.7475 114.559 34.615L114.311 34.1809C114.094 34.3045 113.879 34.4122 113.664 34.5043L113.861 34.9639ZM114.21 34.5065L115.506 37.196L115.957 36.9789L114.66 34.2893L114.21 34.5065ZM115.565 36.9006C115.299 37.1377 114.968 37.3492 114.57 37.5329L114.78 37.9869C115.214 37.7863 115.588 37.5495 115.898 37.2743L115.565 36.9006ZM114.572 37.5323C114.239 37.6834 113.808 37.8229 113.273 37.9488L113.387 38.4355C113.941 38.3051 114.406 38.1565 114.778 37.9875L114.572 37.5323ZM113.27 37.9496C112.781 38.0718 112.225 38.1342 111.601 38.1342V38.6342C112.258 38.6342 112.855 38.5686 113.391 38.4346L113.27 37.9496ZM111.601 38.1342C109.504 38.1342 107.929 37.5411 106.836 36.3872L106.473 36.7311C107.685 38.0107 109.408 38.6342 111.601 38.6342V38.1342ZM106.836 36.3872C105.742 35.2326 105.175 33.5269 105.175 31.2281H104.675C104.675 33.604 105.261 35.4523 106.473 36.7311L106.836 36.3872ZM105.175 31.2281V24.5523H104.675V31.2281H105.175ZM104.925 24.3023H101.708V24.8023H104.925V24.3023ZM101.958 24.5523V21.3824H101.458V24.5523H101.958ZM101.708 21.6324H104.925V21.1324H101.708V21.6324ZM119.349 14.3704L119.166 14.541L119.172 14.5473L119.178 14.5531L119.349 14.3704ZM119.349 10.9124L119.172 10.7355L119.166 10.7418L119.349 10.9124ZM122.807 10.9124L122.63 11.0892V11.0892L122.807 10.9124ZM122.807 14.3704L122.977 14.5533L122.983 14.5472L122.807 14.3704ZM119.109 21.3824V21.1324H118.859V21.3824H119.109ZM123.047 21.3824H123.297V21.1324H123.047V21.3824ZM123.047 38V38.25H123.297V38H123.047ZM119.109 38H118.859V38.25H119.109V38ZM121.078 14.7928C120.467 14.7928 119.952 14.5916 119.519 14.1876L119.178 14.5531C119.706 15.0457 120.344 15.2928 121.078 15.2928V14.7928ZM119.531 14.1998C119.127 13.767 118.926 13.2521 118.926 12.6414H118.426C118.426 13.3755 118.673 14.0132 119.166 14.541L119.531 14.1998ZM118.926 12.6414C118.926 12.0307 119.127 11.5158 119.531 11.083L119.166 10.7418C118.673 11.2696 118.426 11.9073 118.426 12.6414H118.926ZM119.525 11.0892C119.959 10.6552 120.472 10.442 121.078 10.442V9.94198C120.338 9.94198 119.699 10.209 119.172 10.7356L119.525 11.0892ZM121.078 10.442C121.683 10.442 122.196 10.6552 122.63 11.0892L122.983 10.7356C122.457 10.209 121.817 9.94198 121.078 9.94198V10.442ZM122.63 11.0892C123.064 11.5231 123.277 12.0361 123.277 12.6414H123.777C123.777 11.9019 123.51 11.2622 122.983 10.7356L122.63 11.0892ZM123.277 12.6414C123.277 13.2467 123.064 13.7597 122.63 14.1936L122.983 14.5472C123.51 14.0205 123.777 13.3808 123.777 12.6414H123.277ZM122.636 14.1876C122.203 14.5916 121.688 14.7928 121.078 14.7928V15.2928C121.812 15.2928 122.449 15.0457 122.977 14.5531L122.636 14.1876ZM119.109 21.6324H123.047V21.1324H119.109V21.6324ZM122.797 21.3824V38H123.297V21.3824H122.797ZM123.047 37.75H119.109V38.25H123.047V37.75ZM119.359 38V21.3824H118.859V38H119.359ZM132.52 38V38.25H132.77V38H132.52ZM128.582 38H128.332V38.25H128.582V38ZM128.582 21.3824V21.1324H128.332V21.3824H128.582ZM131.175 21.3824L131.42 21.3324L131.379 21.1324H131.175V21.3824ZM131.655 23.7358L131.41 23.7858L131.451 23.9858H131.655V23.7358ZM131.847 23.7358V23.9858H131.978L132.053 23.8781L131.847 23.7358ZM134.153 21.7666L134.265 21.9903L134.267 21.9888L134.153 21.7666ZM143.374 23.0154L143.193 23.1878L143.195 23.19L143.374 23.0154ZM145.343 38V38.25H145.593V38H145.343ZM141.453 38H141.203V38.25H141.453V38ZM140.348 25.6089L140.542 25.4502L140.348 25.6089ZM135.017 24.6963L135.119 24.925L135.129 24.9199L135.017 24.6963ZM133.576 25.7049L133.393 25.5353L133.392 25.536L133.576 25.7049ZM132.76 27.0497L132.526 26.9618L132.523 26.9706L132.76 27.0497ZM132.52 37.75H128.582V38.25H132.52V37.75ZM128.832 38V21.3824H128.332V38H128.832ZM128.582 21.6324H131.175V21.1324H128.582V21.6324ZM130.93 21.4324L131.41 23.7858L131.9 23.6858L131.42 21.3324L130.93 21.4324ZM131.655 23.9858H131.847V23.4858H131.655V23.9858ZM132.053 23.8781C132.604 23.0823 133.339 22.4529 134.265 21.9903L134.041 21.543C133.045 22.0409 132.244 22.7243 131.642 23.5935L132.053 23.8781ZM134.267 21.9888C135.214 21.5004 136.436 21.2482 137.947 21.2482V20.7482C136.384 20.7482 135.077 21.0083 134.038 21.5445L134.267 21.9888ZM137.947 21.2482C140.235 21.2482 141.971 21.9047 143.193 23.1878L143.555 22.843C142.216 21.4365 140.334 20.7482 137.947 20.7482V21.2482ZM143.195 23.19C144.453 24.4786 145.093 26.2199 145.093 28.4425H145.593C145.593 26.1185 144.921 24.2417 143.553 22.8407L143.195 23.19ZM145.093 28.4425V38H145.593V28.4425H145.093ZM145.343 37.75H141.453V38.25H145.343V37.75ZM141.703 38V28.9708H141.203V38H141.703ZM141.703 28.9708C141.703 27.5778 141.32 26.3984 140.542 25.4502L140.155 25.7675C140.849 26.6124 141.203 27.6742 141.203 28.9708H141.703ZM140.542 25.4502C139.746 24.4821 138.578 24.0141 137.083 24.0141V24.5141C138.468 24.5141 139.478 24.9426 140.155 25.7675L140.542 25.4502ZM137.083 24.0141C136.252 24.0141 135.524 24.1635 134.906 24.4727L135.129 24.9199C135.663 24.6528 136.312 24.5141 137.083 24.5141V24.0141ZM134.916 24.4679C134.312 24.7363 133.803 25.0914 133.393 25.5353L133.76 25.8745C134.119 25.486 134.57 25.1687 135.119 24.9248L134.916 24.4679ZM133.392 25.536C133.017 25.945 132.729 26.4211 132.526 26.9619L132.994 27.1375C133.176 26.6537 133.431 26.2333 133.761 25.8738L133.392 25.536ZM132.523 26.9706C132.355 27.4731 132.27 27.9641 132.27 28.4425H132.77C132.77 28.0243 132.845 27.5868 132.997 27.1287L132.523 26.9706ZM132.27 28.4425V38H132.77V28.4425H132.27ZM165.132 36.5111L165.287 36.7077L165.449 36.5798L165.354 36.3961L165.132 36.5111ZM163.547 37.4717L163.654 37.6979L163.654 37.6976L163.547 37.4717ZM161.53 38.1441L161.472 37.901L161.469 37.9015L161.53 38.1441ZM154.902 37.8079L154.812 38.041L154.819 38.0438L154.902 37.8079ZM151.925 35.9828L151.751 36.1632L151.755 36.1665L151.925 35.9828ZM150.051 33.2453L149.82 33.3405L149.821 33.3429L150.051 33.2453ZM150.003 26.2812L149.772 26.186L149.771 26.1896L150.003 26.2812ZM151.828 23.4956L152.005 23.6725L152.009 23.6688L151.828 23.4956ZM154.566 21.6706L154.658 21.9032L154.661 21.9018L154.566 21.6706ZM161.626 21.6226L161.72 21.3909L161.626 21.6226ZM164.22 23.3996L164.035 23.5687L164.043 23.5764L164.22 23.3996ZM165.853 26.0411L165.616 26.1224L165.618 26.1289L165.853 26.0411ZM166.381 29.6912L166.138 29.6306L166.131 29.6604V29.6912H166.381ZM166.381 30.5077V30.7577H166.631V30.5077H166.381ZM153.221 30.5077V30.2577H152.946L152.972 30.5321L153.221 30.5077ZM155.046 34.1578L154.895 34.3572L154.902 34.362L155.046 34.1578ZM161.002 35.1183L161.053 35.3633L161.065 35.3601L161.002 35.1183ZM162.539 34.6381L162.628 34.8714L162.632 34.8702L162.539 34.6381ZM163.787 33.9176L164.009 33.8026L163.868 33.5291L163.629 33.7242L163.787 33.9176ZM154.998 25.0806L154.845 24.8832L154.841 24.8861L154.998 25.0806ZM153.317 27.9622L153.074 27.906L153.003 28.2122H153.317V27.9622ZM162.587 27.9622V28.2122H162.875L162.834 27.9269L162.587 27.9622ZM161.146 25.1766L160.973 25.3571L160.977 25.3606L161.146 25.1766ZM164.978 36.3146C164.546 36.6534 164.035 36.9642 163.44 37.2458L163.654 37.6976C164.277 37.4029 164.821 37.0733 165.287 36.7077L164.978 36.3146ZM163.441 37.2455C162.916 37.4923 162.261 37.7115 161.472 37.901L161.588 38.3872C162.4 38.1924 163.09 37.9634 163.654 37.6979L163.441 37.2455ZM161.469 37.9015C160.726 38.0875 159.85 38.1823 158.841 38.1823V38.6823C159.88 38.6823 160.798 38.5849 161.591 38.3866L161.469 37.9015ZM158.841 38.1823C157.424 38.1823 156.14 37.9776 154.985 37.572L154.819 38.0438C156.034 38.4706 157.376 38.6823 158.841 38.6823V38.1823ZM154.993 37.5749C153.867 37.1369 152.902 36.5445 152.094 35.7991L151.755 36.1665C152.612 36.9581 153.632 37.5823 154.812 38.0409L154.993 37.5749ZM152.098 35.8025C151.322 35.0583 150.717 34.1742 150.282 33.1476L149.821 33.3429C150.282 34.4296 150.926 35.3705 151.751 36.1632L152.098 35.8025ZM150.283 33.1501C149.848 32.0934 149.629 30.9573 149.629 29.7392H149.129C149.129 31.0186 149.359 32.2198 149.82 33.3404L150.283 33.1501ZM149.629 29.7392C149.629 28.5188 149.832 27.3975 150.236 26.3729L149.771 26.1896C149.342 27.2782 149.129 28.4623 149.129 29.7392H149.629ZM150.235 26.3764C150.671 25.3158 151.262 24.4156 152.005 23.6724L151.652 23.3189C150.858 24.1125 150.232 25.0695 149.772 26.1861L150.235 26.3764ZM152.009 23.6688C152.752 22.8949 153.634 22.3066 154.658 21.9032L154.474 21.438C153.385 21.8671 152.442 22.4954 151.648 23.3225L152.009 23.6688ZM154.661 21.9018C155.716 21.4673 156.884 21.2482 158.168 21.2482V20.7482C156.826 20.7482 155.593 20.9774 154.471 21.4394L154.661 21.9018ZM158.168 21.2482C159.422 21.2482 160.542 21.4518 161.532 21.8542L161.72 21.3909C160.661 20.9608 159.476 20.7482 158.168 20.7482V21.2482ZM161.532 21.8542C162.524 22.2573 163.358 22.8291 164.035 23.5685L164.404 23.2307C163.673 22.4332 162.777 21.8203 161.72 21.3909L161.532 21.8542ZM164.043 23.5764C164.751 24.2848 165.276 25.1323 165.616 26.1224L166.089 25.9598C165.725 24.9008 165.161 23.9872 164.396 23.2228L164.043 23.5764ZM165.618 26.1289C165.991 27.1232 166.179 28.1978 166.179 29.355H166.679C166.679 28.1428 166.482 27.0082 166.087 25.9533L165.618 26.1289ZM166.179 29.355C166.179 29.4246 166.167 29.5155 166.138 29.6306L166.623 29.7518C166.659 29.6108 166.679 29.4775 166.679 29.355H166.179ZM166.131 29.6912C166.131 29.6915 166.131 29.6917 166.131 29.692C166.131 29.6922 166.131 29.6925 166.131 29.6927C166.131 29.693 166.131 29.6932 166.131 29.6935C166.131 29.6937 166.131 29.694 166.131 29.6942C166.131 29.6945 166.131 29.6947 166.131 29.695C166.131 29.6952 166.131 29.6955 166.131 29.6957C166.131 29.696 166.131 29.6962 166.131 29.6965C166.131 29.6967 166.131 29.697 166.131 29.6972C166.131 29.6975 166.131 29.6977 166.131 29.698C166.131 29.6982 166.131 29.6985 166.131 29.6987C166.131 29.699 166.131 29.6992 166.131 29.6995C166.131 29.6997 166.131 29.7 166.131 29.7002C166.131 29.7005 166.131 29.7007 166.131 29.701C166.131 29.7012 166.131 29.7015 166.131 29.7017C166.131 29.702 166.131 29.7022 166.131 29.7025C166.131 29.7027 166.131 29.703 166.131 29.7032C166.131 29.7035 166.131 29.7037 166.131 29.704C166.131 29.7042 166.131 29.7045 166.131 29.7047C166.131 29.705 166.131 29.7052 166.131 29.7055C166.131 29.7057 166.131 29.706 166.131 29.7062C166.131 29.7065 166.131 29.7067 166.131 29.707C166.131 29.7072 166.131 29.7075 166.131 29.7077C166.131 29.708 166.131 29.7082 166.131 29.7085C166.131 29.7087 166.131 29.709 166.131 29.7092C166.131 29.7095 166.131 29.7097 166.131 29.71C166.131 29.7102 166.131 29.7105 166.131 29.7107C166.131 29.711 166.131 29.7112 166.131 29.7115C166.131 29.7117 166.131 29.712 166.131 29.7122C166.131 29.7125 166.131 29.7127 166.131 29.713C166.131 29.7132 166.131 29.7135 166.131 29.7137C166.131 29.714 166.131 29.7142 166.131 29.7145C166.131 29.7147 166.131 29.715 166.131 29.7152C166.131 29.7155 166.131 29.7157 166.131 29.716C166.131 29.7162 166.131 29.7165 166.131 29.7167C166.131 29.717 166.131 29.7172 166.131 29.7175C166.131 29.7177 166.131 29.718 166.131 29.7182C166.131 29.7185 166.131 29.7187 166.131 29.719C166.131 29.7192 166.131 29.7195 166.131 29.7197C166.131 29.72 166.131 29.7202 166.131 29.7205C166.131 29.7207 166.131 29.721 166.131 29.7212C166.131 29.7215 166.131 29.7217 166.131 29.722C166.131 29.7222 166.131 29.7225 166.131 29.7227C166.131 29.723 166.131 29.7232 166.131 29.7235C166.131 29.7237 166.131 29.724 166.131 29.7242C166.131 29.7245 166.131 29.7247 166.131 29.725C166.131 29.7252 166.131 29.7255 166.131 29.7257C166.131 29.726 166.131 29.7262 166.131 29.7265C166.131 29.7267 166.131 29.727 166.131 29.7272C166.131 29.7275 166.131 29.7277 166.131 29.728C166.131 29.7282 166.131 29.7285 166.131 29.7287C166.131 29.729 166.131 29.7292 166.131 29.7295C166.131 29.7297 166.131 29.73 166.131 29.7302C166.131 29.7305 166.131 29.7307 166.131 29.731C166.131 29.7312 166.131 29.7315 166.131 29.7317C166.131 29.732 166.131 29.7322 166.131 29.7325C166.131 29.7327 166.131 29.733 166.131 29.7332C166.131 29.7335 166.131 29.7337 166.131 29.734C166.131 29.7342 166.131 29.7345 166.131 29.7347C166.131 29.735 166.131 29.7352 166.131 29.7355C166.131 29.7357 166.131 29.736 166.131 29.7362C166.131 29.7365 166.131 29.7367 166.131 29.737C166.131 29.7372 166.131 29.7375 166.131 29.7377C166.131 29.738 166.131 29.7382 166.131 29.7385C166.131 29.7387 166.131 29.739 166.131 29.7392C166.131 29.7395 166.131 29.7397 166.131 29.74C166.131 29.7402 166.131 29.7405 166.131 29.7407C166.131 29.741 166.131 29.7412 166.131 29.7415C166.131 29.7417 166.131 29.742 166.131 29.7422C166.131 29.7425 166.131 29.7427 166.131 29.743C166.131 29.7432 166.131 29.7435 166.131 29.7437C166.131 29.744 166.131 29.7442 166.131 29.7445C166.131 29.7447 166.131 29.745 166.131 29.7452C166.131 29.7455 166.131 29.7457 166.131 29.746C166.131 29.7462 166.131 29.7465 166.131 29.7467C166.131 29.747 166.131 29.7472 166.131 29.7475C166.131 29.7477 166.131 29.748 166.131 29.7482C166.131 29.7485 166.131 29.7487 166.131 29.749C166.131 29.7492 166.131 29.7495 166.131 29.7497C166.131 29.75 166.131 29.7502 166.131 29.7505C166.131 29.7507 166.131 29.751 166.131 29.7512C166.131 29.7515 166.131 29.7517 166.131 29.752C166.131 29.7522 166.131 29.7525 166.131 29.7527C166.131 29.753 166.131 29.7532 166.131 29.7535C166.131 29.7537 166.131 29.754 166.131 29.7542C166.131 29.7545 166.131 29.7547 166.131 29.755C166.131 29.7552 166.131 29.7555 166.131 29.7557C166.131 29.756 166.131 29.7563 166.131 29.7565C166.131 29.7568 166.131 29.757 166.131 29.7572C166.131 29.7575 166.131 29.7578 166.131 29.758C166.131 29.7583 166.131 29.7585 166.131 29.7588C166.131 29.759 166.131 29.7593 166.131 29.7595C166.131 29.7598 166.131 29.76 166.131 29.7603C166.131 29.7605 166.131 29.7608 166.131 29.761C166.131 29.7613 166.131 29.7615 166.131 29.7618C166.131 29.762 166.131 29.7623 166.131 29.7625C166.131 29.7628 166.131 29.763 166.131 29.7633C166.131 29.7635 166.131 29.7638 166.131 29.764C166.131 29.7643 166.131 29.7645 166.131 29.7648C166.131 29.765 166.131 29.7653 166.131 29.7655C166.131 29.7658 166.131 29.766 166.131 29.7663C166.131 29.7665 166.131 29.7668 166.131 29.767C166.131 29.7673 166.131 29.7675 166.131 29.7678C166.131 29.768 166.131 29.7683 166.131 29.7685C166.131 29.7688 166.131 29.769 166.131 29.7693C166.131 29.7695 166.131 29.7698 166.131 29.77C166.131 29.7703 166.131 29.7705 166.131 29.7708C166.131 29.771 166.131 29.7713 166.131 29.7715C166.131 29.7718 166.131 29.772 166.131 29.7723C166.131 29.7725 166.131 29.7728 166.131 29.773C166.131 29.7733 166.131 29.7735 166.131 29.7738C166.131 29.774 166.131 29.7743 166.131 29.7745C166.131 29.7748 166.131 29.775 166.131 29.7753C166.131 29.7755 166.131 29.7758 166.131 29.776C166.131 29.7763 166.131 29.7765 166.131 29.7768C166.131 29.777 166.131 29.7773 166.131 29.7775C166.131 29.7778 166.131 29.778 166.131 29.7783C166.131 29.7785 166.131 29.7788 166.131 29.779C166.131 29.7793 166.131 29.7795 166.131 29.7798C166.131 29.78 166.131 29.7803 166.131 29.7805C166.131 29.7808 166.131 29.781 166.131 29.7813C166.131 29.7815 166.131 29.7818 166.131 29.782C166.131 29.7823 166.131 29.7825 166.131 29.7828C166.131 29.783 166.131 29.7833 166.131 29.7835C166.131 29.7838 166.131 29.784 166.131 29.7843C166.131 29.7845 166.131 29.7848 166.131 29.785C166.131 29.7853 166.131 29.7855 166.131 29.7858C166.131 29.786 166.131 29.7863 166.131 29.7865C166.131 29.7868 166.131 29.787 166.131 29.7873C166.131 29.7875 166.131 29.7878 166.131 29.788C166.131 29.7883 166.131 29.7885 166.131 29.7888C166.131 29.789 166.131 29.7893 166.131 29.7895C166.131 29.7898 166.131 29.79 166.131 29.7903C166.131 29.7905 166.131 29.7908 166.131 29.791C166.131 29.7913 166.131 29.7915 166.131 29.7918C166.131 29.792 166.131 29.7923 166.131 29.7925C166.131 29.7928 166.131 29.793 166.131 29.7933C166.131 29.7935 166.131 29.7938 166.131 29.794C166.131 29.7943 166.131 29.7945 166.131 29.7948C166.131 29.795 166.131 29.7953 166.131 29.7955C166.131 29.7958 166.131 29.796 166.131 29.7963C166.131 29.7965 166.131 29.7968 166.131 29.797C166.131 29.7973 166.131 29.7975 166.131 29.7978C166.131 29.798 166.131 29.7983 166.131 29.7985C166.131 29.7988 166.131 29.799 166.131 29.7993C166.131 29.7995 166.131 29.7998 166.131 29.8C166.131 29.8003 166.131 29.8005 166.131 29.8008C166.131 29.801 166.131 29.8013 166.131 29.8015C166.131 29.8018 166.131 29.802 166.131 29.8023C166.131 29.8025 166.131 29.8028 166.131 29.803C166.131 29.8033 166.131 29.8035 166.131 29.8038C166.131 29.804 166.131 29.8043 166.131 29.8045C166.131 29.8048 166.131 29.805 166.131 29.8053C166.131 29.8055 166.131 29.8058 166.131 29.806C166.131 29.8063 166.131 29.8065 166.131 29.8068C166.131 29.807 166.131 29.8073 166.131 29.8075C166.131 29.8078 166.131 29.808 166.131 29.8083C166.131 29.8085 166.131 29.8088 166.131 29.809C166.131 29.8093 166.131 29.8095 166.131 29.8098C166.131 29.81 166.131 29.8103 166.131 29.8105C166.131 29.8108 166.131 29.811 166.131 29.8113C166.131 29.8115 166.131 29.8118 166.131 29.812C166.131 29.8123 166.131 29.8125 166.131 29.8128C166.131 29.813 166.131 29.8133 166.131 29.8135C166.131 29.8138 166.131 29.814 166.131 29.8143C166.131 29.8145 166.131 29.8148 166.131 29.815C166.131 29.8153 166.131 29.8155 166.131 29.8158C166.131 29.816 166.131 29.8163 166.131 29.8165C166.131 29.8168 166.131 29.817 166.131 29.8173C166.131 29.8175 166.131 29.8178 166.131 29.818C166.131 29.8183 166.131 29.8185 166.131 29.8188C166.131 29.819 166.131 29.8193 166.131 29.8195C166.131 29.8198 166.131 29.82 166.131 29.8203C166.131 29.8205 166.131 29.8208 166.131 29.821C166.131 29.8213 166.131 29.8215 166.131 29.8218C166.131 29.822 166.131 29.8223 166.131 29.8225C166.131 29.8228 166.131 29.823 166.131 29.8233C166.131 29.8235 166.131 29.8238 166.131 29.824C166.131 29.8243 166.131 29.8245 166.131 29.8248C166.131 29.825 166.131 29.8253 166.131 29.8255C166.131 29.8258 166.131 29.826 166.131 29.8263C166.131 29.8265 166.131 29.8268 166.131 29.827C166.131 29.8273 166.131 29.8275 166.131 29.8278C166.131 29.828 166.131 29.8283 166.131 29.8285C166.131 29.8288 166.131 29.829 166.131 29.8293C166.131 29.8295 166.131 29.8298 166.131 29.83C166.131 29.8303 166.131 29.8305 166.131 29.8308C166.131 29.831 166.131 29.8313 166.131 29.8315C166.131 29.8318 166.131 29.832 166.131 29.8323C166.131 29.8325 166.131 29.8328 166.131 29.833C166.131 29.8333 166.131 29.8335 166.131 29.8338C166.131 29.834 166.131 29.8343 166.131 29.8345C166.131 29.8348 166.131 29.835 166.131 29.8353C166.131 29.8355 166.131 29.8358 166.131 29.836C166.131 29.8363 166.131 29.8365 166.131 29.8368C166.131 29.837 166.131 29.8373 166.131 29.8375C166.131 29.8378 166.131 29.838 166.131 29.8383C166.131 29.8385 166.131 29.8388 166.131 29.839C166.131 29.8393 166.131 29.8395 166.131 29.8398C166.131 29.84 166.131 29.8403 166.131 29.8405C166.131 29.8408 166.131 29.841 166.131 29.8413C166.131 29.8415 166.131 29.8418 166.131 29.842C166.131 29.8423 166.131 29.8426 166.131 29.8428C166.131 29.8431 166.131 29.8433 166.131 29.8435C166.131 29.8438 166.131 29.844 166.131 29.8443C166.131 29.8446 166.131 29.8448 166.131 29.8451C166.131 29.8453 166.131 29.8456 166.131 29.8458C166.131 29.8461 166.131 29.8463 166.131 29.8466C166.131 29.8468 166.131 29.8471 166.131 29.8473C166.131 29.8476 166.131 29.8478 166.131 29.8481C166.131 29.8483 166.131 29.8486 166.131 29.8488C166.131 29.8491 166.131 29.8493 166.131 29.8496C166.131 29.8498 166.131 29.8501 166.131 29.8503C166.131 29.8506 166.131 29.8508 166.131 29.8511C166.131 29.8513 166.131 29.8516 166.131 29.8518C166.131 29.8521 166.131 29.8523 166.131 29.8526C166.131 29.8528 166.131 29.8531 166.131 29.8533C166.131 29.8536 166.131 29.8538 166.131 29.8541C166.131 29.8543 166.131 29.8546 166.131 29.8548C166.131 29.8551 166.131 29.8553 166.131 29.8556C166.131 29.8558 166.131 29.8561 166.131 29.8563C166.131 29.8566 166.131 29.8568 166.131 29.8571C166.131 29.8573 166.131 29.8576 166.131 29.8578C166.131 29.8581 166.131 29.8583 166.131 29.8586C166.131 29.8588 166.131 29.8591 166.131 29.8593C166.131 29.8596 166.131 29.8598 166.131 29.8601C166.131 29.8603 166.131 29.8606 166.131 29.8608C166.131 29.8611 166.131 29.8613 166.131 29.8616C166.131 29.8618 166.131 29.8621 166.131 29.8623C166.131 29.8626 166.131 29.8628 166.131 29.8631C166.131 29.8633 166.131 29.8636 166.131 29.8638C166.131 29.8641 166.131 29.8643 166.131 29.8646C166.131 29.8648 166.131 29.8651 166.131 29.8653C166.131 29.8656 166.131 29.8658 166.131 29.8661C166.131 29.8663 166.131 29.8666 166.131 29.8668C166.131 29.8671 166.131 29.8673 166.131 29.8676C166.131 29.8678 166.131 29.8681 166.131 29.8683C166.131 29.8686 166.131 29.8688 166.131 29.8691C166.131 29.8693 166.131 29.8696 166.131 29.8698C166.131 29.8701 166.131 29.8703 166.131 29.8706C166.131 29.8708 166.131 29.8711 166.131 29.8713C166.131 29.8716 166.131 29.8718 166.131 29.8721C166.131 29.8723 166.131 29.8726 166.131 29.8728C166.131 29.8731 166.131 29.8733 166.131 29.8736C166.131 29.8738 166.131 29.8741 166.131 29.8743C166.131 29.8746 166.131 29.8748 166.131 29.8751C166.131 29.8753 166.131 29.8756 166.131 29.8758C166.131 29.8761 166.131 29.8763 166.131 29.8766C166.131 29.8768 166.131 29.8771 166.131 29.8773C166.131 29.8776 166.131 29.8778 166.131 29.8781C166.131 29.8783 166.131 29.8786 166.131 29.8788C166.131 29.8791 166.131 29.8793 166.131 29.8796C166.131 29.8798 166.131 29.8801 166.131 29.8803C166.131 29.8806 166.131 29.8808 166.131 29.8811C166.131 29.8813 166.131 29.8816 166.131 29.8818C166.131 29.8821 166.131 29.8823 166.131 29.8826C166.131 29.8828 166.131 29.8831 166.131 29.8833C166.131 29.8836 166.131 29.8838 166.131 29.8841C166.131 29.8843 166.131 29.8846 166.131 29.8848C166.131 29.8851 166.131 29.8853 166.131 29.8856C166.131 29.8858 166.131 29.8861 166.131 29.8863C166.131 29.8866 166.131 29.8868 166.131 29.8871C166.131 29.8873 166.131 29.8876 166.131 29.8878C166.131 29.8881 166.131 29.8883 166.131 29.8886C166.131 29.8888 166.131 29.8891 166.131 29.8893C166.131 29.8896 166.131 29.8898 166.131 29.8901C166.131 29.8903 166.131 29.8906 166.131 29.8908C166.131 29.8911 166.131 29.8913 166.131 29.8916C166.131 29.8918 166.131 29.8921 166.131 29.8923C166.131 29.8926 166.131 29.8928 166.131 29.8931C166.131 29.8933 166.131 29.8936 166.131 29.8938C166.131 29.8941 166.131 29.8943 166.131 29.8946C166.131 29.8948 166.131 29.8951 166.131 29.8953C166.131 29.8956 166.131 29.8958 166.131 29.8961C166.131 29.8963 166.131 29.8966 166.131 29.8968C166.131 29.8971 166.131 29.8973 166.131 29.8976C166.131 29.8978 166.131 29.8981 166.131 29.8983C166.131 29.8986 166.131 29.8988 166.131 29.8991C166.131 29.8993 166.131 29.8996 166.131 29.8998C166.131 29.9001 166.131 29.9003 166.131 29.9006C166.131 29.9008 166.131 29.9011 166.131 29.9013C166.131 29.9016 166.131 29.9018 166.131 29.9021C166.131 29.9023 166.131 29.9026 166.131 29.9028C166.131 29.9031 166.131 29.9033 166.131 29.9036C166.131 29.9038 166.131 29.9041 166.131 29.9043C166.131 29.9046 166.131 29.9048 166.131 29.9051C166.131 29.9053 166.131 29.9056 166.131 29.9058C166.131 29.9061 166.131 29.9063 166.131 29.9066C166.131 29.9068 166.131 29.9071 166.131 29.9073C166.131 29.9076 166.131 29.9078 166.131 29.9081C166.131 29.9083 166.131 29.9086 166.131 29.9088C166.131 29.9091 166.131 29.9093 166.131 29.9096C166.131 29.9098 166.131 29.9101 166.131 29.9103C166.131 29.9106 166.131 29.9108 166.131 29.9111C166.131 29.9113 166.131 29.9116 166.131 29.9118C166.131 29.9121 166.131 29.9123 166.131 29.9126C166.131 29.9128 166.131 29.9131 166.131 29.9133C166.131 29.9136 166.131 29.9138 166.131 29.9141C166.131 29.9143 166.131 29.9146 166.131 29.9148C166.131 29.9151 166.131 29.9153 166.131 29.9156C166.131 29.9158 166.131 29.9161 166.131 29.9163C166.131 29.9166 166.131 29.9168 166.131 29.9171C166.131 29.9173 166.131 29.9176 166.131 29.9178C166.131 29.9181 166.131 29.9183 166.131 29.9186C166.131 29.9188 166.131 29.9191 166.131 29.9193C166.131 29.9196 166.131 29.9198 166.131 29.9201C166.131 29.9203 166.131 29.9206 166.131 29.9208C166.131 29.9211 166.131 29.9213 166.131 29.9216C166.131 29.9218 166.131 29.9221 166.131 29.9223C166.131 29.9226 166.131 29.9228 166.131 29.9231C166.131 29.9233 166.131 29.9236 166.131 29.9238C166.131 29.9241 166.131 29.9243 166.131 29.9246C166.131 29.9248 166.131 29.9251 166.131 29.9253C166.131 29.9256 166.131 29.9258 166.131 29.9261C166.131 29.9263 166.131 29.9266 166.131 29.9268C166.131 29.9271 166.131 29.9273 166.131 29.9276C166.131 29.9278 166.131 29.9281 166.131 29.9283C166.131 29.9286 166.131 29.9288 166.131 29.9291C166.131 29.9293 166.131 29.9296 166.131 29.9298C166.131 29.9301 166.131 29.9303 166.131 29.9306C166.131 29.9309 166.131 29.9311 166.131 29.9314C166.131 29.9316 166.131 29.9319 166.131 29.9321C166.131 29.9324 166.131 29.9326 166.131 29.9329C166.131 29.9331 166.131 29.9334 166.131 29.9336C166.131 29.9339 166.131 29.9341 166.131 29.9344C166.131 29.9346 166.131 29.9349 166.131 29.9351C166.131 29.9354 166.131 29.9356 166.131 29.9359C166.131 29.9361 166.131 29.9364 166.131 29.9366C166.131 29.9369 166.131 29.9371 166.131 29.9374C166.131 29.9376 166.131 29.9379 166.131 29.9381C166.131 29.9384 166.131 29.9386 166.131 29.9389C166.131 29.9391 166.131 29.9394 166.131 29.9396C166.131 29.9399 166.131 29.9401 166.131 29.9404C166.131 29.9406 166.131 29.9409 166.131 29.9411C166.131 29.9414 166.131 29.9416 166.131 29.9419C166.131 29.9421 166.131 29.9424 166.131 29.9426C166.131 29.9429 166.131 29.9431 166.131 29.9434C166.131 29.9436 166.131 29.9439 166.131 29.9441C166.131 29.9444 166.131 29.9446 166.131 29.9449C166.131 29.9451 166.131 29.9454 166.131 29.9456C166.131 29.9459 166.131 29.9461 166.131 29.9464C166.131 29.9466 166.131 29.9469 166.131 29.9471C166.131 29.9474 166.131 29.9476 166.131 29.9479C166.131 29.9481 166.131 29.9484 166.131 29.9486C166.131 29.9489 166.131 29.9491 166.131 29.9494C166.131 29.9496 166.131 29.9499 166.131 29.9501C166.131 29.9504 166.131 29.9506 166.131 29.9509C166.131 29.9511 166.131 29.9514 166.131 29.9516C166.131 29.9519 166.131 29.9521 166.131 29.9524C166.131 29.9526 166.131 29.9529 166.131 29.9531C166.131 29.9534 166.131 29.9536 166.131 29.9539C166.131 29.9541 166.131 29.9544 166.131 29.9546C166.131 29.9549 166.131 29.9551 166.131 29.9554C166.131 29.9556 166.131 29.9559 166.131 29.9561C166.131 29.9564 166.131 29.9566 166.131 29.9569C166.131 29.9571 166.131 29.9574 166.131 29.9576C166.131 29.9579 166.131 29.9581 166.131 29.9584C166.131 29.9586 166.131 29.9589 166.131 29.9591C166.131 29.9594 166.131 29.9596 166.131 29.9599C166.131 29.9601 166.131 29.9604 166.131 29.9606C166.131 29.9609 166.131 29.9611 166.131 29.9614C166.131 29.9616 166.131 29.9619 166.131 29.9621C166.131 29.9624 166.131 29.9626 166.131 29.9629C166.131 29.9631 166.131 29.9634 166.131 29.9636C166.131 29.9639 166.131 29.9641 166.131 29.9644C166.131 29.9646 166.131 29.9649 166.131 29.9651C166.131 29.9654 166.131 29.9656 166.131 29.9659C166.131 29.9661 166.131 29.9664 166.131 29.9666C166.131 29.9669 166.131 29.9671 166.131 29.9674C166.131 29.9676 166.131 29.9679 166.131 29.9681C166.131 29.9684 166.131 29.9686 166.131 29.9689C166.131 29.9691 166.131 29.9694 166.131 29.9696C166.131 29.9699 166.131 29.9701 166.131 29.9704C166.131 29.9706 166.131 29.9709 166.131 29.9711C166.131 29.9714 166.131 29.9716 166.131 29.9719C166.131 29.9721 166.131 29.9724 166.131 29.9726C166.131 29.9729 166.131 29.9731 166.131 29.9734C166.131 29.9736 166.131 29.9739 166.131 29.9741C166.131 29.9744 166.131 29.9746 166.131 29.9749C166.131 29.9751 166.131 29.9754 166.131 29.9756C166.131 29.9759 166.131 29.9761 166.131 29.9764C166.131 29.9766 166.131 29.9769 166.131 29.9771C166.131 29.9774 166.131 29.9776 166.131 29.9779C166.131 29.9781 166.131 29.9784 166.131 29.9786C166.131 29.9789 166.131 29.9791 166.131 29.9794C166.131 29.9796 166.131 29.9799 166.131 29.9801C166.131 29.9804 166.131 29.9806 166.131 29.9809C166.131 29.9811 166.131 29.9814 166.131 29.9816C166.131 29.9819 166.131 29.9821 166.131 29.9824C166.131 29.9826 166.131 29.9829 166.131 29.9831C166.131 29.9834 166.131 29.9836 166.131 29.9839C166.131 29.9841 166.131 29.9844 166.131 29.9846C166.131 29.9849 166.131 29.9851 166.131 29.9854C166.131 29.9856 166.131 29.9859 166.131 29.9861C166.131 29.9864 166.131 29.9866 166.131 29.9869C166.131 29.9871 166.131 29.9874 166.131 29.9876C166.131 29.9879 166.131 29.9881 166.131 29.9884C166.131 29.9886 166.131 29.9889 166.131 29.9891C166.131 29.9894 166.131 29.9896 166.131 29.9899C166.131 29.9901 166.131 29.9904 166.131 29.9906C166.131 29.9909 166.131 29.9911 166.131 29.9914C166.131 29.9916 166.131 29.9919 166.131 29.9921C166.131 29.9924 166.131 29.9926 166.131 29.9929C166.131 29.9931 166.131 29.9934 166.131 29.9936C166.131 29.9939 166.131 29.9941 166.131 29.9944C166.131 29.9946 166.131 29.9949 166.131 29.9951C166.131 29.9954 166.131 29.9956 166.131 29.9959C166.131 29.9961 166.131 29.9964 166.131 29.9966C166.131 29.9969 166.131 29.9971 166.131 29.9974C166.131 29.9976 166.131 29.9979 166.131 29.9981C166.131 29.9984 166.131 29.9986 166.131 29.9989C166.131 29.9991 166.131 29.9994 166.131 29.9996C166.131 29.9999 166.131 30.0001 166.131 30.0004C166.131 30.0006 166.131 30.0009 166.131 30.0011C166.131 30.0014 166.131 30.0016 166.131 30.0019C166.131 30.0021 166.131 30.0024 166.131 30.0026C166.131 30.0029 166.131 30.0031 166.131 30.0034C166.131 30.0036 166.131 30.0039 166.131 30.0041C166.131 30.0044 166.131 30.0046 166.131 30.0049C166.131 30.0051 166.131 30.0054 166.131 30.0056C166.131 30.0059 166.131 30.0061 166.131 30.0064C166.131 30.0066 166.131 30.0069 166.131 30.0071C166.131 30.0074 166.131 30.0076 166.131 30.0079C166.131 30.0081 166.131 30.0084 166.131 30.0086C166.131 30.0089 166.131 30.0091 166.131 30.0094C166.131 30.0096 166.131 30.0099 166.131 30.0101C166.131 30.0104 166.131 30.0106 166.131 30.0109C166.131 30.0111 166.131 30.0114 166.131 30.0116C166.131 30.0119 166.131 30.0121 166.131 30.0124C166.131 30.0126 166.131 30.0129 166.131 30.0131C166.131 30.0134 166.131 30.0136 166.131 30.0139C166.131 30.0141 166.131 30.0144 166.131 30.0146C166.131 30.0149 166.131 30.0151 166.131 30.0154C166.131 30.0156 166.131 30.0159 166.131 30.0161C166.131 30.0164 166.131 30.0166 166.131 30.0169C166.131 30.0172 166.131 30.0174 166.131 30.0177C166.131 30.0179 166.131 30.0182 166.131 30.0184C166.131 30.0187 166.131 30.0189 166.131 30.0192C166.131 30.0194 166.131 30.0197 166.131 30.0199C166.131 30.0202 166.131 30.0204 166.131 30.0207C166.131 30.0209 166.131 30.0212 166.131 30.0214C166.131 30.0217 166.131 30.0219 166.131 30.0222C166.131 30.0224 166.131 30.0227 166.131 30.0229C166.131 30.0232 166.131 30.0234 166.131 30.0237C166.131 30.0239 166.131 30.0242 166.131 30.0244C166.131 30.0247 166.131 30.0249 166.131 30.0252C166.131 30.0254 166.131 30.0257 166.131 30.0259C166.131 30.0262 166.131 30.0264 166.131 30.0267C166.131 30.0269 166.131 30.0272 166.131 30.0274C166.131 30.0277 166.131 30.0279 166.131 30.0282C166.131 30.0284 166.131 30.0287 166.131 30.0289C166.131 30.0292 166.131 30.0294 166.131 30.0297C166.131 30.0299 166.131 30.0302 166.131 30.0304C166.131 30.0307 166.131 30.0309 166.131 30.0312C166.131 30.0314 166.131 30.0317 166.131 30.0319C166.131 30.0322 166.131 30.0324 166.131 30.0327C166.131 30.0329 166.131 30.0332 166.131 30.0334C166.131 30.0337 166.131 30.0339 166.131 30.0342C166.131 30.0344 166.131 30.0347 166.131 30.0349C166.131 30.0352 166.131 30.0354 166.131 30.0357C166.131 30.0359 166.131 30.0362 166.131 30.0364C166.131 30.0367 166.131 30.0369 166.131 30.0372C166.131 30.0374 166.131 30.0377 166.131 30.0379C166.131 30.0382 166.131 30.0384 166.131 30.0387C166.131 30.0389 166.131 30.0392 166.131 30.0394C166.131 30.0397 166.131 30.0399 166.131 30.0402C166.131 30.0404 166.131 30.0407 166.131 30.0409C166.131 30.0412 166.131 30.0414 166.131 30.0417C166.131 30.0419 166.131 30.0422 166.131 30.0424C166.131 30.0427 166.131 30.0429 166.131 30.0432C166.131 30.0434 166.131 30.0437 166.131 30.0439C166.131 30.0442 166.131 30.0444 166.131 30.0447C166.131 30.0449 166.131 30.0452 166.131 30.0454C166.131 30.0457 166.131 30.0459 166.131 30.0462C166.131 30.0464 166.131 30.0467 166.131 30.0469C166.131 30.0472 166.131 30.0474 166.131 30.0477C166.131 30.0479 166.131 30.0482 166.131 30.0484C166.131 30.0487 166.131 30.0489 166.131 30.0492C166.131 30.0494 166.131 30.0497 166.131 30.0499C166.131 30.0502 166.131 30.0504 166.131 30.0507C166.131 30.0509 166.131 30.0512 166.131 30.0514C166.131 30.0517 166.131 30.0519 166.131 30.0522C166.131 30.0524 166.131 30.0527 166.131 30.0529C166.131 30.0532 166.131 30.0534 166.131 30.0537C166.131 30.0539 166.131 30.0542 166.131 30.0544C166.131 30.0547 166.131 30.0549 166.131 30.0552C166.131 30.0554 166.131 30.0557 166.131 30.0559C166.131 30.0562 166.131 30.0564 166.131 30.0567C166.131 30.0569 166.131 30.0572 166.131 30.0574C166.131 30.0577 166.131 30.0579 166.131 30.0582C166.131 30.0584 166.131 30.0587 166.131 30.0589C166.131 30.0592 166.131 30.0594 166.131 30.0597C166.131 30.0599 166.131 30.0602 166.131 30.0604C166.131 30.0607 166.131 30.0609 166.131 30.0612C166.131 30.0614 166.131 30.0617 166.131 30.0619C166.131 30.0622 166.131 30.0624 166.131 30.0627C166.131 30.0629 166.131 30.0632 166.131 30.0634C166.131 30.0637 166.131 30.0639 166.131 30.0642C166.131 30.0644 166.131 30.0647 166.131 30.0649C166.131 30.0652 166.131 30.0654 166.131 30.0657C166.131 30.0659 166.131 30.0662 166.131 30.0664C166.131 30.0667 166.131 30.0669 166.131 30.0672C166.131 30.0674 166.131 30.0677 166.131 30.0679C166.131 30.0682 166.131 30.0684 166.131 30.0687C166.131 30.0689 166.131 30.0692 166.131 30.0694C166.131 30.0697 166.131 30.0699 166.131 30.0702C166.131 30.0704 166.131 30.0707 166.131 30.0709C166.131 30.0712 166.131 30.0714 166.131 30.0717C166.131 30.0719 166.131 30.0722 166.131 30.0724C166.131 30.0727 166.131 30.0729 166.131 30.0732C166.131 30.0734 166.131 30.0737 166.131 30.0739C166.131 30.0742 166.131 30.0744 166.131 30.0747C166.131 30.0749 166.131 30.0752 166.131 30.0754H166.631C166.631 30.0752 166.631 30.0749 166.631 30.0747C166.631 30.0744 166.631 30.0742 166.631 30.0739C166.631 30.0737 166.631 30.0734 166.631 30.0732C166.631 30.0729 166.631 30.0727 166.631 30.0724C166.631 30.0722 166.631 30.0719 166.631 30.0717C166.631 30.0714 166.631 30.0712 166.631 30.0709C166.631 30.0707 166.631 30.0704 166.631 30.0702C166.631 30.0699 166.631 30.0697 166.631 30.0694C166.631 30.0692 166.631 30.0689 166.631 30.0687C166.631 30.0684 166.631 30.0682 166.631 30.0679C166.631 30.0677 166.631 30.0674 166.631 30.0672C166.631 30.0669 166.631 30.0667 166.631 30.0664C166.631 30.0662 166.631 30.0659 166.631 30.0657C166.631 30.0654 166.631 30.0652 166.631 30.0649C166.631 30.0647 166.631 30.0644 166.631 30.0642C166.631 30.0639 166.631 30.0637 166.631 30.0634C166.631 30.0632 166.631 30.0629 166.631 30.0627C166.631 30.0624 166.631 30.0622 166.631 30.0619C166.631 30.0617 166.631 30.0614 166.631 30.0612C166.631 30.0609 166.631 30.0607 166.631 30.0604C166.631 30.0602 166.631 30.0599 166.631 30.0597C166.631 30.0594 166.631 30.0592 166.631 30.0589C166.631 30.0587 166.631 30.0584 166.631 30.0582C166.631 30.0579 166.631 30.0577 166.631 30.0574C166.631 30.0572 166.631 30.0569 166.631 30.0567C166.631 30.0564 166.631 30.0562 166.631 30.0559C166.631 30.0557 166.631 30.0554 166.631 30.0552C166.631 30.0549 166.631 30.0547 166.631 30.0544C166.631 30.0542 166.631 30.0539 166.631 30.0537C166.631 30.0534 166.631 30.0532 166.631 30.0529C166.631 30.0527 166.631 30.0524 166.631 30.0522C166.631 30.0519 166.631 30.0517 166.631 30.0514C166.631 30.0512 166.631 30.0509 166.631 30.0507C166.631 30.0504 166.631 30.0502 166.631 30.0499C166.631 30.0497 166.631 30.0494 166.631 30.0492C166.631 30.0489 166.631 30.0487 166.631 30.0484C166.631 30.0482 166.631 30.0479 166.631 30.0477C166.631 30.0474 166.631 30.0472 166.631 30.0469C166.631 30.0467 166.631 30.0464 166.631 30.0462C166.631 30.0459 166.631 30.0457 166.631 30.0454C166.631 30.0452 166.631 30.0449 166.631 30.0447C166.631 30.0444 166.631 30.0442 166.631 30.0439C166.631 30.0437 166.631 30.0434 166.631 30.0432C166.631 30.0429 166.631 30.0427 166.631 30.0424C166.631 30.0422 166.631 30.0419 166.631 30.0417C166.631 30.0414 166.631 30.0412 166.631 30.0409C166.631 30.0407 166.631 30.0404 166.631 30.0402C166.631 30.0399 166.631 30.0397 166.631 30.0394C166.631 30.0392 166.631 30.0389 166.631 30.0387C166.631 30.0384 166.631 30.0382 166.631 30.0379C166.631 30.0377 166.631 30.0374 166.631 30.0372C166.631 30.0369 166.631 30.0367 166.631 30.0364C166.631 30.0362 166.631 30.0359 166.631 30.0357C166.631 30.0354 166.631 30.0352 166.631 30.0349C166.631 30.0347 166.631 30.0344 166.631 30.0342C166.631 30.0339 166.631 30.0337 166.631 30.0334C166.631 30.0332 166.631 30.0329 166.631 30.0327C166.631 30.0324 166.631 30.0322 166.631 30.0319C166.631 30.0317 166.631 30.0314 166.631 30.0312C166.631 30.0309 166.631 30.0307 166.631 30.0304C166.631 30.0302 166.631 30.0299 166.631 30.0297C166.631 30.0294 166.631 30.0292 166.631 30.0289C166.631 30.0287 166.631 30.0284 166.631 30.0282C166.631 30.0279 166.631 30.0277 166.631 30.0274C166.631 30.0272 166.631 30.0269 166.631 30.0267C166.631 30.0264 166.631 30.0262 166.631 30.0259C166.631 30.0257 166.631 30.0254 166.631 30.0252C166.631 30.0249 166.631 30.0247 166.631 30.0244C166.631 30.0242 166.631 30.0239 166.631 30.0237C166.631 30.0234 166.631 30.0232 166.631 30.0229C166.631 30.0227 166.631 30.0224 166.631 30.0222C166.631 30.0219 166.631 30.0217 166.631 30.0214C166.631 30.0212 166.631 30.0209 166.631 30.0207C166.631 30.0204 166.631 30.0202 166.631 30.0199C166.631 30.0197 166.631 30.0194 166.631 30.0192C166.631 30.0189 166.631 30.0187 166.631 30.0184C166.631 30.0182 166.631 30.0179 166.631 30.0177C166.631 30.0174 166.631 30.0172 166.631 30.0169C166.631 30.0166 166.631 30.0164 166.631 30.0161C166.631 30.0159 166.631 30.0156 166.631 30.0154C166.631 30.0151 166.631 30.0149 166.631 30.0146C166.631 30.0144 166.631 30.0141 166.631 30.0139C166.631 30.0136 166.631 30.0134 166.631 30.0131C166.631 30.0129 166.631 30.0126 166.631 30.0124C166.631 30.0121 166.631 30.0119 166.631 30.0116C166.631 30.0114 166.631 30.0111 166.631 30.0109C166.631 30.0106 166.631 30.0104 166.631 30.0101C166.631 30.0099 166.631 30.0096 166.631 30.0094C166.631 30.0091 166.631 30.0089 166.631 30.0086C166.631 30.0084 166.631 30.0081 166.631 30.0079C166.631 30.0076 166.631 30.0074 166.631 30.0071C166.631 30.0069 166.631 30.0066 166.631 30.0064C166.631 30.0061 166.631 30.0059 166.631 30.0056C166.631 30.0054 166.631 30.0051 166.631 30.0049C166.631 30.0046 166.631 30.0044 166.631 30.0041C166.631 30.0039 166.631 30.0036 166.631 30.0034C166.631 30.0031 166.631 30.0029 166.631 30.0026C166.631 30.0024 166.631 30.0021 166.631 30.0019C166.631 30.0016 166.631 30.0014 166.631 30.0011C166.631 30.0009 166.631 30.0006 166.631 30.0004C166.631 30.0001 166.631 29.9999 166.631 29.9996C166.631 29.9994 166.631 29.9991 166.631 29.9989C166.631 29.9986 166.631 29.9984 166.631 29.9981C166.631 29.9979 166.631 29.9976 166.631 29.9974C166.631 29.9971 166.631 29.9969 166.631 29.9966C166.631 29.9964 166.631 29.9961 166.631 29.9959C166.631 29.9956 166.631 29.9954 166.631 29.9951C166.631 29.9949 166.631 29.9946 166.631 29.9944C166.631 29.9941 166.631 29.9939 166.631 29.9936C166.631 29.9934 166.631 29.9931 166.631 29.9929C166.631 29.9926 166.631 29.9924 166.631 29.9921C166.631 29.9919 166.631 29.9916 166.631 29.9914C166.631 29.9911 166.631 29.9909 166.631 29.9906C166.631 29.9904 166.631 29.9901 166.631 29.9899C166.631 29.9896 166.631 29.9894 166.631 29.9891C166.631 29.9889 166.631 29.9886 166.631 29.9884C166.631 29.9881 166.631 29.9879 166.631 29.9876C166.631 29.9874 166.631 29.9871 166.631 29.9869C166.631 29.9866 166.631 29.9864 166.631 29.9861C166.631 29.9859 166.631 29.9856 166.631 29.9854C166.631 29.9851 166.631 29.9849 166.631 29.9846C166.631 29.9844 166.631 29.9841 166.631 29.9839C166.631 29.9836 166.631 29.9834 166.631 29.9831C166.631 29.9829 166.631 29.9826 166.631 29.9824C166.631 29.9821 166.631 29.9819 166.631 29.9816C166.631 29.9814 166.631 29.9811 166.631 29.9809C166.631 29.9806 166.631 29.9804 166.631 29.9801C166.631 29.9799 166.631 29.9796 166.631 29.9794C166.631 29.9791 166.631 29.9789 166.631 29.9786C166.631 29.9784 166.631 29.9781 166.631 29.9779C166.631 29.9776 166.631 29.9774 166.631 29.9771C166.631 29.9769 166.631 29.9766 166.631 29.9764C166.631 29.9761 166.631 29.9759 166.631 29.9756C166.631 29.9754 166.631 29.9751 166.631 29.9749C166.631 29.9746 166.631 29.9744 166.631 29.9741C166.631 29.9739 166.631 29.9736 166.631 29.9734C166.631 29.9731 166.631 29.9729 166.631 29.9726C166.631 29.9724 166.631 29.9721 166.631 29.9719C166.631 29.9716 166.631 29.9714 166.631 29.9711C166.631 29.9709 166.631 29.9706 166.631 29.9704C166.631 29.9701 166.631 29.9699 166.631 29.9696C166.631 29.9694 166.631 29.9691 166.631 29.9689C166.631 29.9686 166.631 29.9684 166.631 29.9681C166.631 29.9679 166.631 29.9676 166.631 29.9674C166.631 29.9671 166.631 29.9669 166.631 29.9666C166.631 29.9664 166.631 29.9661 166.631 29.9659C166.631 29.9656 166.631 29.9654 166.631 29.9651C166.631 29.9649 166.631 29.9646 166.631 29.9644C166.631 29.9641 166.631 29.9639 166.631 29.9636C166.631 29.9634 166.631 29.9631 166.631 29.9629C166.631 29.9626 166.631 29.9624 166.631 29.9621C166.631 29.9619 166.631 29.9616 166.631 29.9614C166.631 29.9611 166.631 29.9609 166.631 29.9606C166.631 29.9604 166.631 29.9601 166.631 29.9599C166.631 29.9596 166.631 29.9594 166.631 29.9591C166.631 29.9589 166.631 29.9586 166.631 29.9584C166.631 29.9581 166.631 29.9579 166.631 29.9576C166.631 29.9574 166.631 29.9571 166.631 29.9569C166.631 29.9566 166.631 29.9564 166.631 29.9561C166.631 29.9559 166.631 29.9556 166.631 29.9554C166.631 29.9551 166.631 29.9549 166.631 29.9546C166.631 29.9544 166.631 29.9541 166.631 29.9539C166.631 29.9536 166.631 29.9534 166.631 29.9531C166.631 29.9529 166.631 29.9526 166.631 29.9524C166.631 29.9521 166.631 29.9519 166.631 29.9516C166.631 29.9514 166.631 29.9511 166.631 29.9509C166.631 29.9506 166.631 29.9504 166.631 29.9501C166.631 29.9499 166.631 29.9496 166.631 29.9494C166.631 29.9491 166.631 29.9489 166.631 29.9486C166.631 29.9484 166.631 29.9481 166.631 29.9479C166.631 29.9476 166.631 29.9474 166.631 29.9471C166.631 29.9469 166.631 29.9466 166.631 29.9464C166.631 29.9461 166.631 29.9459 166.631 29.9456C166.631 29.9454 166.631 29.9451 166.631 29.9449C166.631 29.9446 166.631 29.9444 166.631 29.9441C166.631 29.9439 166.631 29.9436 166.631 29.9434C166.631 29.9431 166.631 29.9429 166.631 29.9426C166.631 29.9424 166.631 29.9421 166.631 29.9419C166.631 29.9416 166.631 29.9414 166.631 29.9411C166.631 29.9409 166.631 29.9406 166.631 29.9404C166.631 29.9401 166.631 29.9399 166.631 29.9396C166.631 29.9394 166.631 29.9391 166.631 29.9389C166.631 29.9386 166.631 29.9384 166.631 29.9381C166.631 29.9379 166.631 29.9376 166.631 29.9374C166.631 29.9371 166.631 29.9369 166.631 29.9366C166.631 29.9364 166.631 29.9361 166.631 29.9359C166.631 29.9356 166.631 29.9354 166.631 29.9351C166.631 29.9349 166.631 29.9346 166.631 29.9344C166.631 29.9341 166.631 29.9339 166.631 29.9336C166.631 29.9334 166.631 29.9331 166.631 29.9329C166.631 29.9326 166.631 29.9324 166.631 29.9321C166.631 29.9319 166.631 29.9316 166.631 29.9314C166.631 29.9311 166.631 29.9309 166.631 29.9306C166.631 29.9303 166.631 29.9301 166.631 29.9298C166.631 29.9296 166.631 29.9293 166.631 29.9291C166.631 29.9288 166.631 29.9286 166.631 29.9283C166.631 29.9281 166.631 29.9278 166.631 29.9276C166.631 29.9273 166.631 29.9271 166.631 29.9268C166.631 29.9266 166.631 29.9263 166.631 29.9261C166.631 29.9258 166.631 29.9256 166.631 29.9253C166.631 29.9251 166.631 29.9248 166.631 29.9246C166.631 29.9243 166.631 29.9241 166.631 29.9238C166.631 29.9236 166.631 29.9233 166.631 29.9231C166.631 29.9228 166.631 29.9226 166.631 29.9223C166.631 29.9221 166.631 29.9218 166.631 29.9216C166.631 29.9213 166.631 29.9211 166.631 29.9208C166.631 29.9206 166.631 29.9203 166.631 29.9201C166.631 29.9198 166.631 29.9196 166.631 29.9193C166.631 29.9191 166.631 29.9188 166.631 29.9186C166.631 29.9183 166.631 29.9181 166.631 29.9178C166.631 29.9176 166.631 29.9173 166.631 29.9171C166.631 29.9168 166.631 29.9166 166.631 29.9163C166.631 29.9161 166.631 29.9158 166.631 29.9156C166.631 29.9153 166.631 29.9151 166.631 29.9148C166.631 29.9146 166.631 29.9143 166.631 29.9141C166.631 29.9138 166.631 29.9136 166.631 29.9133C166.631 29.9131 166.631 29.9128 166.631 29.9126C166.631 29.9123 166.631 29.9121 166.631 29.9118C166.631 29.9116 166.631 29.9113 166.631 29.9111C166.631 29.9108 166.631 29.9106 166.631 29.9103C166.631 29.9101 166.631 29.9098 166.631 29.9096C166.631 29.9093 166.631 29.9091 166.631 29.9088C166.631 29.9086 166.631 29.9083 166.631 29.9081C166.631 29.9078 166.631 29.9076 166.631 29.9073C166.631 29.9071 166.631 29.9068 166.631 29.9066C166.631 29.9063 166.631 29.9061 166.631 29.9058C166.631 29.9056 166.631 29.9053 166.631 29.9051C166.631 29.9048 166.631 29.9046 166.631 29.9043C166.631 29.9041 166.631 29.9038 166.631 29.9036C166.631 29.9033 166.631 29.9031 166.631 29.9028C166.631 29.9026 166.631 29.9023 166.631 29.9021C166.631 29.9018 166.631 29.9016 166.631 29.9013C166.631 29.9011 166.631 29.9008 166.631 29.9006C166.631 29.9003 166.631 29.9001 166.631 29.8998C166.631 29.8996 166.631 29.8993 166.631 29.8991C166.631 29.8988 166.631 29.8986 166.631 29.8983C166.631 29.8981 166.631 29.8978 166.631 29.8976C166.631 29.8973 166.631 29.8971 166.631 29.8968C166.631 29.8966 166.631 29.8963 166.631 29.8961C166.631 29.8958 166.631 29.8956 166.631 29.8953C166.631 29.8951 166.631 29.8948 166.631 29.8946C166.631 29.8943 166.631 29.8941 166.631 29.8938C166.631 29.8936 166.631 29.8933 166.631 29.8931C166.631 29.8928 166.631 29.8926 166.631 29.8923C166.631 29.8921 166.631 29.8918 166.631 29.8916C166.631 29.8913 166.631 29.8911 166.631 29.8908C166.631 29.8906 166.631 29.8903 166.631 29.8901C166.631 29.8898 166.631 29.8896 166.631 29.8893C166.631 29.8891 166.631 29.8888 166.631 29.8886C166.631 29.8883 166.631 29.8881 166.631 29.8878C166.631 29.8876 166.631 29.8873 166.631 29.8871C166.631 29.8868 166.631 29.8866 166.631 29.8863C166.631 29.8861 166.631 29.8858 166.631 29.8856C166.631 29.8853 166.631 29.8851 166.631 29.8848C166.631 29.8846 166.631 29.8843 166.631 29.8841C166.631 29.8838 166.631 29.8836 166.631 29.8833C166.631 29.8831 166.631 29.8828 166.631 29.8826C166.631 29.8823 166.631 29.8821 166.631 29.8818C166.631 29.8816 166.631 29.8813 166.631 29.8811C166.631 29.8808 166.631 29.8806 166.631 29.8803C166.631 29.8801 166.631 29.8798 166.631 29.8796C166.631 29.8793 166.631 29.8791 166.631 29.8788C166.631 29.8786 166.631 29.8783 166.631 29.8781C166.631 29.8778 166.631 29.8776 166.631 29.8773C166.631 29.8771 166.631 29.8768 166.631 29.8766C166.631 29.8763 166.631 29.8761 166.631 29.8758C166.631 29.8756 166.631 29.8753 166.631 29.8751C166.631 29.8748 166.631 29.8746 166.631 29.8743C166.631 29.8741 166.631 29.8738 166.631 29.8736C166.631 29.8733 166.631 29.8731 166.631 29.8728C166.631 29.8726 166.631 29.8723 166.631 29.8721C166.631 29.8718 166.631 29.8716 166.631 29.8713C166.631 29.8711 166.631 29.8708 166.631 29.8706C166.631 29.8703 166.631 29.8701 166.631 29.8698C166.631 29.8696 166.631 29.8693 166.631 29.8691C166.631 29.8688 166.631 29.8686 166.631 29.8683C166.631 29.8681 166.631 29.8678 166.631 29.8676C166.631 29.8673 166.631 29.8671 166.631 29.8668C166.631 29.8666 166.631 29.8663 166.631 29.8661C166.631 29.8658 166.631 29.8656 166.631 29.8653C166.631 29.8651 166.631 29.8648 166.631 29.8646C166.631 29.8643 166.631 29.8641 166.631 29.8638C166.631 29.8636 166.631 29.8633 166.631 29.8631C166.631 29.8628 166.631 29.8626 166.631 29.8623C166.631 29.8621 166.631 29.8618 166.631 29.8616C166.631 29.8613 166.631 29.8611 166.631 29.8608C166.631 29.8606 166.631 29.8603 166.631 29.8601C166.631 29.8598 166.631 29.8596 166.631 29.8593C166.631 29.8591 166.631 29.8588 166.631 29.8586C166.631 29.8583 166.631 29.8581 166.631 29.8578C166.631 29.8576 166.631 29.8573 166.631 29.8571C166.631 29.8568 166.631 29.8566 166.631 29.8563C166.631 29.8561 166.631 29.8558 166.631 29.8556C166.631 29.8553 166.631 29.8551 166.631 29.8548C166.631 29.8546 166.631 29.8543 166.631 29.8541C166.631 29.8538 166.631 29.8536 166.631 29.8533C166.631 29.8531 166.631 29.8528 166.631 29.8526C166.631 29.8523 166.631 29.8521 166.631 29.8518C166.631 29.8516 166.631 29.8513 166.631 29.8511C166.631 29.8508 166.631 29.8506 166.631 29.8503C166.631 29.8501 166.631 29.8498 166.631 29.8496C166.631 29.8493 166.631 29.8491 166.631 29.8488C166.631 29.8486 166.631 29.8483 166.631 29.8481C166.631 29.8478 166.631 29.8476 166.631 29.8473C166.631 29.8471 166.631 29.8468 166.631 29.8466C166.631 29.8463 166.631 29.8461 166.631 29.8458C166.631 29.8456 166.631 29.8453 166.631 29.8451C166.631 29.8448 166.631 29.8446 166.631 29.8443C166.631 29.844 166.631 29.8438 166.631 29.8435C166.631 29.8433 166.631 29.8431 166.631 29.8428C166.631 29.8426 166.631 29.8423 166.631 29.842C166.631 29.8418 166.631 29.8415 166.631 29.8413C166.631 29.841 166.631 29.8408 166.631 29.8405C166.631 29.8403 166.631 29.84 166.631 29.8398C166.631 29.8395 166.631 29.8393 166.631 29.839C166.631 29.8388 166.631 29.8385 166.631 29.8383C166.631 29.838 166.631 29.8378 166.631 29.8375C166.631 29.8373 166.631 29.837 166.631 29.8368C166.631 29.8365 166.631 29.8363 166.631 29.836C166.631 29.8358 166.631 29.8355 166.631 29.8353C166.631 29.835 166.631 29.8348 166.631 29.8345C166.631 29.8343 166.631 29.834 166.631 29.8338C166.631 29.8335 166.631 29.8333 166.631 29.833C166.631 29.8328 166.631 29.8325 166.631 29.8323C166.631 29.832 166.631 29.8318 166.631 29.8315C166.631 29.8313 166.631 29.831 166.631 29.8308C166.631 29.8305 166.631 29.8303 166.631 29.83C166.631 29.8298 166.631 29.8295 166.631 29.8293C166.631 29.829 166.631 29.8288 166.631 29.8285C166.631 29.8283 166.631 29.828 166.631 29.8278C166.631 29.8275 166.631 29.8273 166.631 29.827C166.631 29.8268 166.631 29.8265 166.631 29.8263C166.631 29.826 166.631 29.8258 166.631 29.8255C166.631 29.8253 166.631 29.825 166.631 29.8248C166.631 29.8245 166.631 29.8243 166.631 29.824C166.631 29.8238 166.631 29.8235 166.631 29.8233C166.631 29.823 166.631 29.8228 166.631 29.8225C166.631 29.8223 166.631 29.822 166.631 29.8218C166.631 29.8215 166.631 29.8213 166.631 29.821C166.631 29.8208 166.631 29.8205 166.631 29.8203C166.631 29.82 166.631 29.8198 166.631 29.8195C166.631 29.8193 166.631 29.819 166.631 29.8188C166.631 29.8185 166.631 29.8183 166.631 29.818C166.631 29.8178 166.631 29.8175 166.631 29.8173C166.631 29.817 166.631 29.8168 166.631 29.8165C166.631 29.8163 166.631 29.816 166.631 29.8158C166.631 29.8155 166.631 29.8153 166.631 29.815C166.631 29.8148 166.631 29.8145 166.631 29.8143C166.631 29.814 166.631 29.8138 166.631 29.8135C166.631 29.8133 166.631 29.813 166.631 29.8128C166.631 29.8125 166.631 29.8123 166.631 29.812C166.631 29.8118 166.631 29.8115 166.631 29.8113C166.631 29.811 166.631 29.8108 166.631 29.8105C166.631 29.8103 166.631 29.81 166.631 29.8098C166.631 29.8095 166.631 29.8093 166.631 29.809C166.631 29.8088 166.631 29.8085 166.631 29.8083C166.631 29.808 166.631 29.8078 166.631 29.8075C166.631 29.8073 166.631 29.807 166.631 29.8068C166.631 29.8065 166.631 29.8063 166.631 29.806C166.631 29.8058 166.631 29.8055 166.631 29.8053C166.631 29.805 166.631 29.8048 166.631 29.8045C166.631 29.8043 166.631 29.804 166.631 29.8038C166.631 29.8035 166.631 29.8033 166.631 29.803C166.631 29.8028 166.631 29.8025 166.631 29.8023C166.631 29.802 166.631 29.8018 166.631 29.8015C166.631 29.8013 166.631 29.801 166.631 29.8008C166.631 29.8005 166.631 29.8003 166.631 29.8C166.631 29.7998 166.631 29.7995 166.631 29.7993C166.631 29.799 166.631 29.7988 166.631 29.7985C166.631 29.7983 166.631 29.798 166.631 29.7978C166.631 29.7975 166.631 29.7973 166.631 29.797C166.631 29.7968 166.631 29.7965 166.631 29.7963C166.631 29.796 166.631 29.7958 166.631 29.7955C166.631 29.7953 166.631 29.795 166.631 29.7948C166.631 29.7945 166.631 29.7943 166.631 29.794C166.631 29.7938 166.631 29.7935 166.631 29.7933C166.631 29.793 166.631 29.7928 166.631 29.7925C166.631 29.7923 166.631 29.792 166.631 29.7918C166.631 29.7915 166.631 29.7913 166.631 29.791C166.631 29.7908 166.631 29.7905 166.631 29.7903C166.631 29.79 166.631 29.7898 166.631 29.7895C166.631 29.7893 166.631 29.789 166.631 29.7888C166.631 29.7885 166.631 29.7883 166.631 29.788C166.631 29.7878 166.631 29.7875 166.631 29.7873C166.631 29.787 166.631 29.7868 166.631 29.7865C166.631 29.7863 166.631 29.786 166.631 29.7858C166.631 29.7855 166.631 29.7853 166.631 29.785C166.631 29.7848 166.631 29.7845 166.631 29.7843C166.631 29.784 166.631 29.7838 166.631 29.7835C166.631 29.7833 166.631 29.783 166.631 29.7828C166.631 29.7825 166.631 29.7823 166.631 29.782C166.631 29.7818 166.631 29.7815 166.631 29.7813C166.631 29.781 166.631 29.7808 166.631 29.7805C166.631 29.7803 166.631 29.78 166.631 29.7798C166.631 29.7795 166.631 29.7793 166.631 29.779C166.631 29.7788 166.631 29.7785 166.631 29.7783C166.631 29.778 166.631 29.7778 166.631 29.7775C166.631 29.7773 166.631 29.777 166.631 29.7768C166.631 29.7765 166.631 29.7763 166.631 29.776C166.631 29.7758 166.631 29.7755 166.631 29.7753C166.631 29.775 166.631 29.7748 166.631 29.7745C166.631 29.7743 166.631 29.774 166.631 29.7738C166.631 29.7735 166.631 29.7733 166.631 29.773C166.631 29.7728 166.631 29.7725 166.631 29.7723C166.631 29.772 166.631 29.7718 166.631 29.7715C166.631 29.7713 166.631 29.771 166.631 29.7708C166.631 29.7705 166.631 29.7703 166.631 29.77C166.631 29.7698 166.631 29.7695 166.631 29.7693C166.631 29.769 166.631 29.7688 166.631 29.7685C166.631 29.7683 166.631 29.768 166.631 29.7678C166.631 29.7675 166.631 29.7673 166.631 29.767C166.631 29.7668 166.631 29.7665 166.631 29.7663C166.631 29.766 166.631 29.7658 166.631 29.7655C166.631 29.7653 166.631 29.765 166.631 29.7648C166.631 29.7645 166.631 29.7643 166.631 29.764C166.631 29.7638 166.631 29.7635 166.631 29.7633C166.631 29.763 166.631 29.7628 166.631 29.7625C166.631 29.7623 166.631 29.762 166.631 29.7618C166.631 29.7615 166.631 29.7613 166.631 29.761C166.631 29.7608 166.631 29.7605 166.631 29.7603C166.631 29.76 166.631 29.7598 166.631 29.7595C166.631 29.7593 166.631 29.759 166.631 29.7588C166.631 29.7585 166.631 29.7583 166.631 29.758C166.631 29.7578 166.631 29.7575 166.631 29.7572C166.631 29.757 166.631 29.7568 166.631 29.7565C166.631 29.7563 166.631 29.756 166.631 29.7557C166.631 29.7555 166.631 29.7552 166.631 29.755C166.631 29.7547 166.631 29.7545 166.631 29.7542C166.631 29.754 166.631 29.7537 166.631 29.7535C166.631 29.7532 166.631 29.753 166.631 29.7527C166.631 29.7525 166.631 29.7522 166.631 29.752C166.631 29.7517 166.631 29.7515 166.631 29.7512C166.631 29.751 166.631 29.7507 166.631 29.7505C166.631 29.7502 166.631 29.75 166.631 29.7497C166.631 29.7495 166.631 29.7492 166.631 29.749C166.631 29.7487 166.631 29.7485 166.631 29.7482C166.631 29.748 166.631 29.7477 166.631 29.7475C166.631 29.7472 166.631 29.747 166.631 29.7467C166.631 29.7465 166.631 29.7462 166.631 29.746C166.631 29.7457 166.631 29.7455 166.631 29.7452C166.631 29.745 166.631 29.7447 166.631 29.7445C166.631 29.7442 166.631 29.744 166.631 29.7437C166.631 29.7435 166.631 29.7432 166.631 29.743C166.631 29.7427 166.631 29.7425 166.631 29.7422C166.631 29.742 166.631 29.7417 166.631 29.7415C166.631 29.7412 166.631 29.741 166.631 29.7407C166.631 29.7405 166.631 29.7402 166.631 29.74C166.631 29.7397 166.631 29.7395 166.631 29.7392C166.631 29.739 166.631 29.7387 166.631 29.7385C166.631 29.7382 166.631 29.738 166.631 29.7377C166.631 29.7375 166.631 29.7372 166.631 29.737C166.631 29.7367 166.631 29.7365 166.631 29.7362C166.631 29.736 166.631 29.7357 166.631 29.7355C166.631 29.7352 166.631 29.735 166.631 29.7347C166.631 29.7345 166.631 29.7342 166.631 29.734C166.631 29.7337 166.631 29.7335 166.631 29.7332C166.631 29.733 166.631 29.7327 166.631 29.7325C166.631 29.7322 166.631 29.732 166.631 29.7317C166.631 29.7315 166.631 29.7312 166.631 29.731C166.631 29.7307 166.631 29.7305 166.631 29.7302C166.631 29.73 166.631 29.7297 166.631 29.7295C166.631 29.7292 166.631 29.729 166.631 29.7287C166.631 29.7285 166.631 29.7282 166.631 29.728C166.631 29.7277 166.631 29.7275 166.631 29.7272C166.631 29.727 166.631 29.7267 166.631 29.7265C166.631 29.7262 166.631 29.726 166.631 29.7257C166.631 29.7255 166.631 29.7252 166.631 29.725C166.631 29.7247 166.631 29.7245 166.631 29.7242C166.631 29.724 166.631 29.7237 166.631 29.7235C166.631 29.7232 166.631 29.723 166.631 29.7227C166.631 29.7225 166.631 29.7222 166.631 29.722C166.631 29.7217 166.631 29.7215 166.631 29.7212C166.631 29.721 166.631 29.7207 166.631 29.7205C166.631 29.7202 166.631 29.72 166.631 29.7197C166.631 29.7195 166.631 29.7192 166.631 29.719C166.631 29.7187 166.631 29.7185 166.631 29.7182C166.631 29.718 166.631 29.7177 166.631 29.7175C166.631 29.7172 166.631 29.717 166.631 29.7167C166.631 29.7165 166.631 29.7162 166.631 29.716C166.631 29.7157 166.631 29.7155 166.631 29.7152C166.631 29.715 166.631 29.7147 166.631 29.7145C166.631 29.7142 166.631 29.714 166.631 29.7137C166.631 29.7135 166.631 29.7132 166.631 29.713C166.631 29.7127 166.631 29.7125 166.631 29.7122C166.631 29.712 166.631 29.7117 166.631 29.7115C166.631 29.7112 166.631 29.711 166.631 29.7107C166.631 29.7105 166.631 29.7102 166.631 29.71C166.631 29.7097 166.631 29.7095 166.631 29.7092C166.631 29.709 166.631 29.7087 166.631 29.7085C166.631 29.7082 166.631 29.708 166.631 29.7077C166.631 29.7075 166.631 29.7072 166.631 29.707C166.631 29.7067 166.631 29.7065 166.631 29.7062C166.631 29.706 166.631 29.7057 166.631 29.7055C166.631 29.7052 166.631 29.705 166.631 29.7047C166.631 29.7045 166.631 29.7042 166.631 29.704C166.631 29.7037 166.631 29.7035 166.631 29.7032C166.631 29.703 166.631 29.7027 166.631 29.7025C166.631 29.7022 166.631 29.702 166.631 29.7017C166.631 29.7015 166.631 29.7012 166.631 29.701C166.631 29.7007 166.631 29.7005 166.631 29.7002C166.631 29.7 166.631 29.6997 166.631 29.6995C166.631 29.6992 166.631 29.699 166.631 29.6987C166.631 29.6985 166.631 29.6982 166.631 29.698C166.631 29.6977 166.631 29.6975 166.631 29.6972C166.631 29.697 166.631 29.6967 166.631 29.6965C166.631 29.6962 166.631 29.696 166.631 29.6957C166.631 29.6955 166.631 29.6952 166.631 29.695C166.631 29.6947 166.631 29.6945 166.631 29.6942C166.631 29.694 166.631 29.6937 166.631 29.6935C166.631 29.6932 166.631 29.693 166.631 29.6927C166.631 29.6925 166.631 29.6922 166.631 29.692C166.631 29.6917 166.631 29.6915 166.631 29.6912H166.131ZM166.131 30.0754V30.5077H166.631V30.0754H166.131ZM166.381 30.2577H153.221V30.7577H166.381V30.2577ZM152.972 30.5321C153.138 32.2167 153.77 33.5048 154.895 34.3571L155.197 33.9585C154.209 33.2098 153.625 32.0645 153.47 30.4833L152.972 30.5321ZM154.902 34.362C156.038 35.164 157.387 35.5605 158.937 35.5605V35.0605C157.476 35.0605 156.232 34.6884 155.191 33.9535L154.902 34.362ZM158.937 35.5605C159.718 35.5605 160.425 35.4953 161.053 35.363L160.95 34.8737C160.362 34.9975 159.692 35.0605 158.937 35.0605V35.5605ZM161.065 35.3601C161.679 35.1985 162.201 35.0358 162.628 34.8714L162.449 34.4047C162.044 34.5605 161.541 34.7179 160.938 34.8766L161.065 35.3601ZM162.632 34.8702C163.132 34.6699 163.571 34.4175 163.946 34.1111L163.629 33.7242C163.299 33.9942 162.906 34.222 162.446 34.4059L162.632 34.8702ZM163.565 34.0327L164.91 36.6262L165.354 36.3961L164.009 33.8026L163.565 34.0327ZM158.12 23.822C156.854 23.822 155.758 24.1729 154.845 24.8832L155.152 25.2779C155.968 24.6434 156.952 24.322 158.12 24.322V23.822ZM154.841 24.8861C153.957 25.6001 153.372 26.614 153.074 27.906L153.561 28.0184C153.839 26.813 154.375 25.9057 155.155 25.275L154.841 24.8861ZM153.317 28.2122H162.587V27.7122H153.317V28.2122ZM162.834 27.9269C162.666 26.7517 162.16 25.7698 161.315 24.9926L160.977 25.3606C161.733 26.0563 162.187 26.9315 162.339 27.9976L162.834 27.9269ZM161.319 24.9961C160.496 24.2074 159.421 23.822 158.12 23.822V24.322C159.316 24.322 160.259 24.6729 160.973 25.3571L161.319 24.9961Z" fill="#333333"/>
<path d="M0.854918 39.2323C0.382369 39.2323 0.000404073 38.8351 0.000404073 38.3458C-0.0161437 35.8659 0.475743 33.4109 1.44293 31.143C2.35657 28.8568 3.71406 26.7904 5.43027 25.0722C13.1349 17.8655 24.8425 17.8655 32.5481 25.0722C34.2644 26.7904 35.6219 28.8568 36.5363 31.143C37.5037 33.4109 37.9955 35.8659 37.9789 38.3458C37.9789 38.8341 37.5961 39.2303 37.1254 39.2303L0.854918 39.2323Z" fill="#F96359"/>
</svg>